<?xml version="1.0" standalone="no"?>
<!DOCTYPE svg PUBLIC "-//W3C//DTD SVG 1.1//EN" "http://www.w3.org/Graphics/SVG/1.1/DTD/svg11.dtd" >
<svg xmlns="http://www.w3.org/2000/svg" width="100%" height="100%">
<metadata>
Created by FontXChange 20110222 at Sun Mar 22 02:42:15 2015
 By Mitchell Warren
 Copyright (c) 1987 Fundicion Tipografica Neufville S. A.
 This record material and the data recorded thereon is the property of
 Fundicion Tipografica Neufville S. A. and Adobe Systems Incorporated,
 or its licensors, and may not be reproduced, used, displayed, modified,
 disclosed or transferred in any manner without the express written
 approval of Fundicion Tipografica Neufville S. A. and Adobe Systems
 Incorporated. 
</metadata>
<defs>
<font id="Futura-BookOblique" horiz-adv-x="616" >
  <font-face 
    font-family="Futura"
    font-weight="500"
    font-style="oblique"
    font-stretch="normal"
    units-per-em="1000"
    panose-1="2 0 6 3 0 0 0 0 0 0"
    ascent="800"
    descent="-200"
    x-height="470"
    cap-height="754"
    bbox="-159.258 -293 1242.42 1056"
    underline-thickness="75"
    underline-position="-150"
    unicode-range="U+0020-FB02"
  />
    <missing-glyph />
    <glyph glyph-name="A" unicode="A" horiz-adv-x="699" 
d="M544.895 214h-322l-124.895 -214h-92l473.123 790l213.877 -790h-93zM524.248 292l-78.168 302l-176.832 -302h255z" />
    <glyph glyph-name="AE" unicode="&#xc6;" horiz-adv-x="1000" 
d="M543.577 212h-322l-122.577 -212h-93l455.422 754h331l21.6455 -78h-305l58.3643 -225h297l22.6455 -78h-298l76.2764 -295h306l20.6465 -78h-393zM521.932 290l-76.96 297l-175.04 -297h252z" />
    <glyph glyph-name="Aacute" unicode="&#xc1;" horiz-adv-x="699" 
d="M544.895 214h-322l-124.895 -214h-92l473.123 790l213.877 -790h-93zM524.248 292l-78.168 302l-176.832 -302h255zM530.819 1028l77.9814 -38l-177.392 -154l-45.5654 28z" />
    <glyph glyph-name="Acircumflex" unicode="&#xc2;" horiz-adv-x="699" 
d="M544.895 214h-322l-124.895 -214h-92l473.123 790l213.877 -790h-93zM524.248 292l-78.168 302l-176.832 -302h255zM333.646 888l177.064 133l136.936 -133l-65.127 -45l-86.5381 85l-112.462 -85z" />
    <glyph glyph-name="Adieresis" unicode="&#xc4;" horiz-adv-x="699" 
d="M544.895 214h-322l-124.895 -214h-92l473.123 790l213.877 -790h-93zM524.248 292l-78.168 302l-176.832 -302h255zM407.643 989c30 0 50.1982 -24 45.4473 -54c-4.75195 -30 -32.5527 -54 -62.5527 -54s-50.1992 24 -45.4473 54c4.75098 30 32.5527 54 62.5527 54z
M604.643 989c30 0 50.1982 -24 45.4473 -54c-4.75195 -30 -32.5527 -54 -62.5527 -54s-50.1992 24 -45.4473 54c4.75098 30 32.5527 54 62.5527 54z" />
    <glyph glyph-name="Agrave" unicode="&#xc0;" horiz-adv-x="699" 
d="M544.895 214h-322l-124.895 -214h-92l473.123 790l213.877 -790h-93zM524.248 292l-78.168 302l-176.832 -302h255zM405.801 990l90.0186 38l93.0244 -164l-54.4346 -28z" />
    <glyph glyph-name="Aring" unicode="&#xc5;" horiz-adv-x="699" 
d="M544.895 214h-322l-124.895 -214h-92l473.123 790l213.877 -790h-93zM524.248 292l-78.168 302l-176.832 -302h255zM518.254 1056c53 0 90.0312 -44 81.6367 -97c-8.55273 -54 -58.5215 -98 -112.521 -98s-91.0312 44 -82.4785 98c8.39453 53 59.3633 97 113.363 97z
M510.335 1006c-26 0 -51.3262 -21 -55.4443 -47s14.3975 -48 40.3975 -48s50.4844 22 54.6025 48s-13.5557 47 -39.5557 47z" />
    <glyph glyph-name="Atilde" unicode="&#xc3;" horiz-adv-x="699" 
d="M544.895 214h-322l-124.895 -214h-92l473.123 790l213.877 -790h-93zM524.248 292l-78.168 302l-176.832 -302h255zM362.111 872l-42.8232 39c29.3359 40 64.5127 79 114.513 79c30 0 55.2578 -11 77.3564 -23c23.2578 -11 42.3574 -23 60.3574 -23
c28 0 48.1182 26 63.6025 48l40.9814 -38c-24.9688 -44 -69.8291 -81 -118.829 -81c-24 0 -48.2578 11 -71.3574 23c-23.2578 11 -45.5156 22 -66.5156 22c-28 0 -43.8008 -24 -57.2852 -46z" />
    <glyph glyph-name="B" unicode="B" horiz-adv-x="568" 
d="M215.435 350l-43.0811 -272h84c94 0 196.644 23 214.857 138c18.5312 117 -90.7764 134 -182.776 134h-73zM76 0l119.422 754h124c137 0 244.08 -50 219.689 -204c-9.66113 -61 -40.8975 -113 -97.2822 -147c86.5156 -22 126.687 -103 112.432 -193
c-23.7578 -150 -154.261 -210 -303.261 -210h-175zM267.067 676l-40.2295 -254h32c95 0 177.742 11 196.273 128c18.0557 114 -52.0439 126 -155.044 126h-33z" />
    <glyph glyph-name="C" unicode="C" horiz-adv-x="717" 
d="M760.76 693l-16.4717 -104c-50.1797 62 -127.161 100 -214.161 100c-168 0 -327.124 -146 -353.416 -312s87.584 -312 256.584 -312c85 0 174.335 40 243.839 100l-16.4727 -104c-72.4434 -47 -156.72 -74 -236.72 -74c-213 0 -365.6 173 -331.706 387
c34.2109 216 239.245 393 455.245 393c84 0 154.199 -24 213.279 -74z" />
    <glyph glyph-name="Ccedilla" unicode="&#xc7;" horiz-adv-x="717" 
d="M760.76 693l-16.4717 -104c-50.1797 62 -127.161 100 -214.161 100c-168 0 -327.124 -146 -353.416 -312s87.584 -312 256.584 -312c85 0 174.335 40 243.839 100l-16.4727 -104c-72.4434 -47 -156.72 -74 -236.72 -74c-213 0 -365.6 173 -331.706 387
c34.2109 216 239.245 393 455.245 393c84 0 154.199 -24 213.279 -74zM435.605 -53l-137.124 -146l-51.5654 28l119.441 148z" />
    <glyph glyph-name="D" unicode="D" horiz-adv-x="678" 
d="M76 0l119.422 754h142c113 0 202.624 -15 279.587 -91c74.2793 -74 97.2822 -175 79.5439 -287c-17.4229 -110 -72.7861 -207 -167.506 -281c-102.671 -80 -195.047 -95 -313.047 -95h-140zM172.354 78h61c92 0 171.06 13 250.354 78c71.1865 58 115.698 137 129.003 221
c13.6211 86 -6.2334 169 -62.2051 226c-59.3389 61 -133.438 73 -222.438 73h-61z" />
    <glyph glyph-name="E" unicode="E" horiz-adv-x="534" 
d="M76 0l119.422 754h391l-12.3545 -78h-307l-35.4775 -224h298l-12.3545 -78h-298l-46.8818 -296h307l-12.3535 -78h-391z" />
    <glyph glyph-name="Eacute" unicode="&#xc9;" horiz-adv-x="534" 
d="M76 0l119.422 754h391l-12.3545 -78h-307l-35.4775 -224h298l-12.3545 -78h-298l-46.8818 -296h307l-12.3535 -78h-391zM447.819 1028l77.9814 -38l-177.392 -154l-45.5654 28z" />
    <glyph glyph-name="Ecircumflex" unicode="&#xca;" horiz-adv-x="534" 
d="M76 0l119.422 754h391l-12.3545 -78h-307l-35.4775 -224h298l-12.3545 -78h-298l-46.8818 -296h307l-12.3535 -78h-391zM250.646 888l177.064 133l136.936 -133l-65.127 -45l-86.5381 85l-112.462 -85z" />
    <glyph glyph-name="Edieresis" unicode="&#xcb;" horiz-adv-x="534" 
d="M76 0l119.422 754h391l-12.3545 -78h-307l-35.4775 -224h298l-12.3545 -78h-298l-46.8818 -296h307l-12.3535 -78h-391zM325.643 989c30 0 50.1982 -24 45.4473 -54c-4.75195 -30 -32.5527 -54 -62.5527 -54s-50.1992 24 -45.4473 54c4.75098 30 32.5527 54 62.5527 54z
M522.643 989c30 0 50.1982 -24 45.4473 -54c-4.75195 -30 -32.5527 -54 -62.5527 -54s-50.1992 24 -45.4473 54c4.75098 30 32.5527 54 62.5527 54z" />
    <glyph glyph-name="Egrave" unicode="&#xc8;" horiz-adv-x="534" 
d="M76 0l119.422 754h391l-12.3545 -78h-307l-35.4775 -224h298l-12.3545 -78h-298l-46.8818 -296h307l-12.3535 -78h-391zM322.801 990l90.0186 38l93.0244 -164l-54.4346 -28z" />
    <glyph glyph-name="Eth" unicode="&#xd0;" horiz-adv-x="678" 
d="M76 0l58.6025 370h-76l12.3535 78h76l48.4658 306h142c113 0 202.624 -15 279.587 -91c74.2793 -74 97.2822 -175 79.5439 -287c-17.4229 -110 -72.7861 -207 -167.506 -281c-102.671 -80 -195.047 -95 -313.047 -95h-140zM172.354 78h61c92 0 171.06 13 250.354 78
c71.1865 58 115.698 137 129.003 221c13.6211 86 -6.2334 169 -62.2051 226c-59.3389 61 -133.438 73 -222.438 73h-61l-36.1113 -228h134l-12.3535 -78h-134z" />
    <glyph glyph-name="F" unicode="F" horiz-adv-x="478" 
d="M526.067 676h-259l-35.4775 -224h251l-12.3545 -78h-251l-59.2354 -374h-84l119.422 754h343z" />
    <glyph glyph-name="G" unicode="G" horiz-adv-x="820" 
d="M523.027 379h314c-14.1553 -102 -38.459 -186 -120.13 -266s-193.956 -126 -298.956 -126c-212 0 -360.125 176 -326.548 388c34.2109 216 238.087 392 455.087 392c132 0 229.655 -59 293.184 -163l-70.0283 -57c-48.9033 89 -125.509 142 -236.509 142
c-172 0 -330.966 -145 -357.892 -315c-12.6709 -80 7.29199 -156 54.2646 -213c46.2891 -55 119.795 -96 198.795 -96c131 0 284.205 96 306.379 236h-224z" />
    <glyph glyph-name="H" unicode="H" horiz-adv-x="714" 
d="M234.956 448h386l48.4658 306h84l-119.422 -754h-84l58.6025 370h-386l-58.6025 -370h-84l119.422 754h84z" />
    <glyph glyph-name="I" unicode="I" horiz-adv-x="239" 
d="M281.422 754l-119.422 -754h-84l119.422 754h84z" />
    <glyph glyph-name="Iacute" unicode="&#xcd;" horiz-adv-x="239" 
d="M281.422 754l-119.422 -754h-84l119.422 754h84zM300.819 1028l77.9814 -38l-177.392 -154l-45.5654 28z" />
    <glyph glyph-name="Icircumflex" unicode="&#xce;" horiz-adv-x="239" 
d="M281.422 754l-119.422 -754h-84l119.422 754h84zM103.646 888l177.064 133l136.936 -133l-65.127 -45l-86.5381 85l-112.462 -85z" />
    <glyph glyph-name="Idieresis" unicode="&#xcf;" horiz-adv-x="239" 
d="M281.422 754l-119.422 -754h-84l119.422 754h84zM177.643 989c30 0 50.1982 -24 45.4473 -54c-4.75195 -30 -32.5527 -54 -62.5527 -54s-50.1992 24 -45.4473 54c4.75098 30 32.5527 54 62.5527 54zM374.643 989c30 0 50.1982 -24 45.4473 -54
c-4.75195 -30 -32.5527 -54 -62.5527 -54s-50.1992 24 -45.4473 54c4.75098 30 32.5527 54 62.5527 54z" />
    <glyph glyph-name="Igrave" unicode="&#xcc;" horiz-adv-x="239" 
d="M281.422 754l-119.422 -754h-84l119.422 754h84zM175.801 990l90.0186 38l93.0244 -164l-54.4346 -28z" />
    <glyph glyph-name="J" unicode="J" horiz-adv-x="314" 
d="M355.422 754l-94.5557 -597c-9.50293 -60 -19.4814 -123 -65.4004 -173c-37.4941 -41 -88.8193 -62 -139.819 -62c-50 0 -92.1992 24 -125.131 56l57.2949 65c23.04 -25 43.1895 -43 82.1895 -43c82 0 97.5215 98 106.866 157l94.5557 597h84z" />
    <glyph glyph-name="K" unicode="K" horiz-adv-x="611" 
d="M228.264 431l372.158 323h113l-409.593 -351l302.171 -403h-116l-254.199 346l-24.3262 -21l-51.4746 -325h-84l119.422 754h84z" />
    <glyph glyph-name="L" unicode="L" horiz-adv-x="375" 
d="M279.422 754l-107.068 -676h208l-12.3535 -78h-292l119.422 754h84z" />
    <glyph glyph-name="Lslash" unicode="&#x141;" horiz-adv-x="375" 
d="M231.748 453l144.255 90l-13.7803 -87l-144.254 -90l-45.6152 -288h208l-12.3535 -78h-292l50.8408 321l-84.3936 -53l13.7793 87l84.5527 54l54.6426 345h84z" />
    <glyph glyph-name="M" unicode="M" horiz-adv-x="896" 
d="M21 0l279.232 797l173.742 -633l375.258 633l26.7676 -797h-86l-16.2246 510h-2l-328.686 -541l-156.314 541h-2l-177.775 -510h-86z" />
    <glyph glyph-name="N" unicode="N" horiz-adv-x="834" 
d="M81 0l124.49 786l490.436 -616l92.4961 584h84l-124.807 -788l-490.594 615l-92.0215 -581h-84z" />
    <glyph glyph-name="Ntilde" unicode="&#xd1;" horiz-adv-x="834" 
d="M81 0l124.49 786l490.436 -616l92.4961 584h84l-124.807 -788l-490.594 615l-92.0215 -581h-84zM429.111 872l-42.8232 39c29.3359 40 64.5127 79 114.513 79c30 0 55.2578 -11 77.3564 -23c23.2578 -11 42.3574 -23 60.3574 -23c28 0 48.1182 26 63.6025 48l40.9814 -38
c-24.9688 -44 -69.8291 -81 -118.829 -81c-24 0 -48.2578 11 -71.3574 23c-23.2578 11 -45.5156 22 -66.5156 22c-28 0 -43.8008 -24 -57.2852 -46z" />
    <glyph glyph-name="O" unicode="O" horiz-adv-x="862" 
d="M552.48 767c215 0 365.283 -175 331.072 -391c-34.3701 -217 -239.611 -389 -454.611 -389s-365.759 172 -331.389 389c34.2109 216 239.928 391 454.928 391zM540.127 689c-173 0 -331.332 -141 -358.416 -312c-26.9258 -170 88.584 -312 259.584 -312
s331.49 142 358.416 312c27.084 171 -86.584 312 -259.584 312z" />
    <glyph glyph-name="OE" unicode="&#x152;" horiz-adv-x="1190" 
d="M729 0l22.9658 145h-2c-80.8389 -100 -202.184 -159 -321.024 -158c-215 0 -365.759 172 -331.389 389c34.2109 216 239.928 391 454.928 391c119 0 219.497 -60 270.5 -161h2l23.4414 148h394l-12.3545 -78h-310l-35.4775 -224h301l-12.3545 -78h-301l-46.8818 -296h310
l-12.3535 -78h-394zM540.127 689c-173 0 -331.332 -141 -358.416 -312c-26.9258 -170 88.584 -312 259.584 -312s331.49 142 358.416 312c27.084 171 -86.584 312 -259.584 312z" />
    <glyph glyph-name="Oacute" unicode="&#xd3;" horiz-adv-x="862" 
d="M552.48 767c215 0 365.283 -175 331.072 -391c-34.3701 -217 -239.611 -389 -454.611 -389s-365.759 172 -331.389 389c34.2109 216 239.928 391 454.928 391zM540.127 689c-173 0 -331.332 -141 -358.416 -312c-26.9258 -170 88.584 -312 259.584 -312
s331.49 142 358.416 312c27.084 171 -86.584 312 -259.584 312zM611.819 1028l77.9814 -38l-177.392 -154l-45.5654 28z" />
    <glyph glyph-name="Ocircumflex" unicode="&#xd4;" horiz-adv-x="862" 
d="M552.48 767c215 0 365.283 -175 331.072 -391c-34.3701 -217 -239.611 -389 -454.611 -389s-365.759 172 -331.389 389c34.2109 216 239.928 391 454.928 391zM540.127 689c-173 0 -331.332 -141 -358.416 -312c-26.9258 -170 88.584 -312 259.584 -312
s331.49 142 358.416 312c27.084 171 -86.584 312 -259.584 312zM414.646 888l177.064 133l136.936 -133l-65.127 -45l-86.5381 85l-112.462 -85z" />
    <glyph glyph-name="Odieresis" unicode="&#xd6;" horiz-adv-x="862" 
d="M552.48 767c215 0 365.283 -175 331.072 -391c-34.3701 -217 -239.611 -389 -454.611 -389s-365.759 172 -331.389 389c34.2109 216 239.928 391 454.928 391zM540.127 689c-173 0 -331.332 -141 -358.416 -312c-26.9258 -170 88.584 -312 259.584 -312
s331.49 142 358.416 312c27.084 171 -86.584 312 -259.584 312zM489.643 989c30 0 50.1982 -24 45.4473 -54c-4.75195 -30 -32.5527 -54 -62.5527 -54s-50.1992 24 -45.4473 54c4.75098 30 32.5527 54 62.5527 54zM686.643 989c30 0 50.1982 -24 45.4473 -54
c-4.75195 -30 -32.5527 -54 -62.5527 -54s-50.1992 24 -45.4473 54c4.75098 30 32.5527 54 62.5527 54z" />
    <glyph glyph-name="Ograve" unicode="&#xd2;" horiz-adv-x="862" 
d="M552.48 767c215 0 365.283 -175 331.072 -391c-34.3701 -217 -239.611 -389 -454.611 -389s-365.759 172 -331.389 389c34.2109 216 239.928 391 454.928 391zM540.127 689c-173 0 -331.332 -141 -358.416 -312c-26.9258 -170 88.584 -312 259.584 -312
s331.49 142 358.416 312c27.084 171 -86.584 312 -259.584 312zM486.801 990l90.0186 38l93.0244 -164l-54.4346 -28z" />
    <glyph glyph-name="Oslash" unicode="&#xd8;" horiz-adv-x="862" 
d="M889.589 774l46.9727 -57l-103.413 -91c46.7549 -71 65.292 -156 50.7207 -248c-34.0527 -215 -238.928 -391 -452.928 -391c-91 0 -175.773 33 -237.746 90l-106.413 -91l-46.9717 57l105.413 91c-44.2305 68 -61.4502 155 -47.6709 242
c34.2109 216 241.928 391 456.928 391c88 0 166.407 -29 229.695 -84zM216.251 191l500.056 436c-46.6641 40 -108.18 62 -175.18 62c-172 0 -332.332 -141 -359.416 -312c-10.4531 -66 2.77637 -134 34.54 -186zM764.279 570l-501.056 -436
c46.3477 -42 112.071 -69 179.071 -69c171 0 330.648 143 357.416 312c11.0869 70 -1.14355 138 -35.4316 193z" />
    <glyph glyph-name="Otilde" unicode="&#xd5;" horiz-adv-x="862" 
d="M552.48 767c215 0 365.283 -175 331.072 -391c-34.3701 -217 -239.611 -389 -454.611 -389s-365.759 172 -331.389 389c34.2109 216 239.928 391 454.928 391zM540.127 689c-173 0 -331.332 -141 -358.416 -312c-26.9258 -170 88.584 -312 259.584 -312
s331.49 142 358.416 312c27.084 171 -86.584 312 -259.584 312zM443.111 872l-42.8232 39c29.3359 40 64.5127 79 114.513 79c30 0 55.2578 -11 77.3564 -23c23.2578 -11 42.3574 -23 60.3574 -23c28 0 48.1182 26 63.6025 48l40.9814 -38
c-24.9688 -44 -69.8291 -81 -118.829 -81c-24 0 -48.2578 11 -71.3574 23c-23.2578 11 -45.5156 22 -66.5156 22c-28 0 -43.8008 -24 -57.2852 -46z" />
    <glyph glyph-name="P" unicode="P" horiz-adv-x="503" 
d="M212.267 330l-52.2666 -330h-84l119.422 754h124c65 0 131.683 -2 180.664 -40c49.8232 -39 68.3701 -105 57.7578 -172c-9.66113 -61 -44.4805 -123 -97.6582 -162c-57.6514 -42 -123.919 -50 -186.919 -50h-61zM267.067 676l-42.4463 -268h56
c93 0 176.435 28 193.54 136c19.4814 123 -78.0938 132 -176.094 132h-31z" />
    <glyph glyph-name="Q" unicode="Q" horiz-adv-x="862" 
d="M575.148 304l108.46 -136c65.3447 59 103.273 128 116.103 209c27.2422 172 -86.584 312 -259.584 312s-331.332 -141 -358.416 -312c-26.9258 -170 88.584 -312 259.584 -312c56 0 125.326 21 176.869 56l-153.016 183h110zM719.892 -7l-52.2305 68
c-69.4434 -47 -162.72 -74 -238.72 -74c-215 0 -365.759 172 -331.389 389c34.2109 216 239.928 391 454.928 391c218 0 364.966 -177 330.755 -393c-16.6299 -105 -68.0928 -190 -151.13 -266l94.7861 -115h-107z" />
    <glyph glyph-name="R" unicode="R" horiz-adv-x="542" 
d="M267.067 676l-42.9219 -271h26c95 0 193.851 18 212.382 135c19.6396 124 -69.46 136 -170.46 136h-25zM212.425 331l-52.4248 -331h-84l119.422 754h109c143 0 269.981 -38 243.056 -208c-18.3721 -116 -104.36 -198 -221.943 -208l186.466 -338h-103l-175.575 331h-21z
" />
    <glyph glyph-name="S" unicode="S" horiz-adv-x="559" 
d="M587.949 650l-73.8105 -43c-21.7637 52 -53.0117 82 -117.012 82c-67 0 -132.603 -48 -143.531 -117c-10.2949 -65 51.9531 -95 99.3105 -118l46.5156 -22c91.1895 -43 166.429 -92 147.423 -212c-20.9072 -132 -142.903 -233 -273.903 -233
c-121 0 -198.646 78 -204.115 195l85.6426 23c-1.19531 -77 47.8262 -140 128.826 -140s164.82 62 178.282 147c13.9385 88 -50.3105 118 -115.242 150l-42.832 20c-81.665 40 -150.538 85 -133.433 193c18.5312 117 129.41 192 241.41 192c84 0 148.189 -43 176.469 -117z
" />
    <glyph glyph-name="Scaron" unicode="&#x160;" horiz-adv-x="559" 
d="M587.949 650l-73.8105 -43c-21.7637 52 -53.0117 82 -117.012 82c-67 0 -132.603 -48 -143.531 -117c-10.2949 -65 51.9531 -95 99.3105 -118l46.5156 -22c91.1895 -43 166.429 -92 147.423 -212c-20.9072 -132 -142.903 -233 -273.903 -233
c-121 0 -198.646 78 -204.115 195l85.6426 23c-1.19531 -77 47.8262 -140 128.826 -140s164.82 62 178.282 147c13.9385 88 -50.3105 118 -115.242 150l-42.832 20c-81.665 40 -150.538 85 -133.433 193c18.5312 117 129.41 192 241.41 192c84 0 148.189 -43 176.469 -117z
M591.583 976l-177.064 -133l-136.936 133l65.1279 45l86.5371 -85l112.462 85z" />
    <glyph glyph-name="T" unicode="T" horiz-adv-x="470" 
d="M383.067 676l-107.067 -676h-84l107.067 676h-182l12.3545 78h450l-12.3545 -78h-184z" />
    <glyph glyph-name="Thorn" unicode="&#xde;" horiz-adv-x="503" 
d="M190.093 190l-30.0928 -190h-84l119.422 754h84l-22.1738 -140h40c65 0 131.683 -2 180.664 -40c49.8232 -39 68.3701 -105 57.7578 -172c-9.66113 -61 -44.4805 -123 -97.6582 -162c-57.6514 -42 -123.919 -50 -186.919 -50h-61zM244.894 536l-42.4463 -268h56
c93 0 176.435 28 193.54 136c19.4814 123 -78.0938 132 -176.094 132h-31z" />
    <glyph glyph-name="U" unicode="U" horiz-adv-x="685" 
d="M277.422 754l-71.1152 -449c-8.86914 -56 -21.0059 -120 6.3916 -168c25.7148 -46 85.5967 -72 140.597 -72c54 0 116.96 25 158.611 67c47.6025 48 55.0566 114 64.4004 173l71.1152 449h84l-74.7578 -472c-12.9873 -82 -29.2822 -147 -99.1016 -209
c-60.8701 -56 -140.621 -86 -216.621 -86c-71 0 -139.724 27 -182.805 77c-56.0215 63 -53.0938 132 -39.4727 218l74.7578 472h84z" />
    <glyph glyph-name="Uacute" unicode="&#xda;" horiz-adv-x="685" 
d="M277.422 754l-71.1152 -449c-8.86914 -56 -21.0059 -120 6.3916 -168c25.7148 -46 85.5967 -72 140.597 -72c54 0 116.96 25 158.611 67c47.6025 48 55.0566 114 64.4004 173l71.1152 449h84l-74.7578 -472c-12.9873 -82 -29.2822 -147 -99.1016 -209
c-60.8701 -56 -140.621 -86 -216.621 -86c-71 0 -139.724 27 -182.805 77c-56.0215 63 -53.0938 132 -39.4727 218l74.7578 472h84zM523.819 1028l77.9814 -38l-177.392 -154l-45.5654 28z" />
    <glyph glyph-name="Ucircumflex" unicode="&#xdb;" horiz-adv-x="685" 
d="M277.422 754l-71.1152 -449c-8.86914 -56 -21.0059 -120 6.3916 -168c25.7148 -46 85.5967 -72 140.597 -72c54 0 116.96 25 158.611 67c47.6025 48 55.0566 114 64.4004 173l71.1152 449h84l-74.7578 -472c-12.9873 -82 -29.2822 -147 -99.1016 -209
c-60.8701 -56 -140.621 -86 -216.621 -86c-71 0 -139.724 27 -182.805 77c-56.0215 63 -53.0938 132 -39.4727 218l74.7578 472h84zM326.646 888l177.064 133l136.936 -133l-65.127 -45l-86.5381 85l-112.462 -85z" />
    <glyph glyph-name="Udieresis" unicode="&#xdc;" horiz-adv-x="685" 
d="M277.422 754l-71.1152 -449c-8.86914 -56 -21.0059 -120 6.3916 -168c25.7148 -46 85.5967 -72 140.597 -72c54 0 116.96 25 158.611 67c47.6025 48 55.0566 114 64.4004 173l71.1152 449h84l-74.7578 -472c-12.9873 -82 -29.2822 -147 -99.1016 -209
c-60.8701 -56 -140.621 -86 -216.621 -86c-71 0 -139.724 27 -182.805 77c-56.0215 63 -53.0938 132 -39.4727 218l74.7578 472h84zM400.643 989c30 0 50.1982 -24 45.4473 -54c-4.75195 -30 -32.5527 -54 -62.5527 -54s-50.1992 24 -45.4473 54
c4.75098 30 32.5527 54 62.5527 54zM597.643 989c30 0 50.1982 -24 45.4473 -54c-4.75195 -30 -32.5527 -54 -62.5527 -54s-50.1992 24 -45.4473 54c4.75098 30 32.5527 54 62.5527 54z" />
    <glyph glyph-name="Ugrave" unicode="&#xd9;" horiz-adv-x="685" 
d="M277.422 754l-71.1152 -449c-8.86914 -56 -21.0059 -120 6.3916 -168c25.7148 -46 85.5967 -72 140.597 -72c54 0 116.96 25 158.611 67c47.6025 48 55.0566 114 64.4004 173l71.1152 449h84l-74.7578 -472c-12.9873 -82 -29.2822 -147 -99.1016 -209
c-60.8701 -56 -140.621 -86 -216.621 -86c-71 0 -139.724 27 -182.805 77c-56.0215 63 -53.0938 132 -39.4727 218l74.7578 472h84zM398.801 990l90.0186 38l93.0244 -164l-54.4346 -28z" />
    <glyph glyph-name="V" unicode="V" horiz-adv-x="624" 
d="M216.422 754l123.929 -575l306.071 575h91l-432.549 -799l-179.451 799h91z" />
    <glyph glyph-name="W" unicode="W" horiz-adv-x="1091" 
d="M223.422 754l108.513 -565l339.664 604l148.336 -604l287.487 565h91l-414.599 -793l-147.861 607l-340.139 -607l-163.401 793h91z" />
    <glyph glyph-name="X" unicode="X" horiz-adv-x="564" 
d="M297.77 390l-146.348 364h96l109.019 -284l198.981 284h96l-261.652 -364l161.23 -390h-96l-123.901 310l-222.099 -310h-96z" />
    <glyph glyph-name="Y" unicode="Y" horiz-adv-x="593" 
d="M306.316 324l-178.895 430h97l138.782 -336l245.218 336h97l-315.105 -430l-51.3164 -324h-84z" />
    <glyph glyph-name="Yacute" unicode="&#xdd;" horiz-adv-x="593" 
d="M306.316 324l-178.895 430h97l138.782 -336l245.218 336h97l-315.105 -430l-51.3164 -324h-84zM501.819 1028l77.9814 -38l-177.392 -154l-45.5654 28z" />
    <glyph glyph-name="Ydieresis" unicode="&#x178;" horiz-adv-x="593" 
d="M306.316 324l-178.895 430h97l138.782 -336l245.218 336h97l-315.105 -430l-51.3164 -324h-84zM354.643 989c30 0 50.1982 -24 45.4473 -54c-4.75195 -30 -32.5527 -54 -62.5527 -54s-50.1992 24 -45.4473 54c4.75098 30 32.5527 54 62.5527 54zM551.643 989
c30 0 50.1982 -24 45.4473 -54c-4.75195 -30 -32.5527 -54 -62.5527 -54s-50.1992 24 -45.4473 54c4.75098 30 32.5527 54 62.5527 54z" />
    <glyph glyph-name="Z" unicode="Z" horiz-adv-x="586" 
d="M165.354 78h401l-12.3535 -78h-540l518.067 676h-359l12.3545 78h499z" />
    <glyph glyph-name="Zcaron" unicode="&#x17d;" horiz-adv-x="586" 
d="M165.354 78h401l-12.3535 -78h-540l518.067 676h-359l12.3545 78h499zM604.583 976l-177.064 -133l-136.936 133l65.1279 45l86.5371 -85l112.462 85z" />
    <glyph glyph-name="a" unicode="a" horiz-adv-x="577" 
d="M335.779 409c-93 0 -165.829 -81 -179.768 -169c-14.5713 -92 25.6494 -179 125.649 -179c103 0 170.146 83 185.192 178c14.8887 94 -32.0742 170 -131.074 170zM579.44 470l-74.4404 -470h-80l10.2949 65h-2c-49.2363 -52 -108.354 -78 -174.354 -78
c-138 0 -206.47 117 -185.88 247c21.2236 134 124.438 249 265.438 249c64 0 117.249 -30 148.33 -80h2l10.6113 67h80z" />
    <glyph glyph-name="aacute" unicode="&#xe1;" horiz-adv-x="577" 
d="M335.779 409c-93 0 -165.829 -81 -179.768 -169c-14.5713 -92 25.6494 -179 125.649 -179c103 0 170.146 83 185.192 178c14.8887 94 -32.0742 170 -131.074 170zM579.44 470l-74.4404 -470h-80l10.2949 65h-2c-49.2363 -52 -108.354 -78 -174.354 -78
c-138 0 -206.47 117 -185.88 247c21.2236 134 124.438 249 265.438 249c64 0 117.249 -30 148.33 -80h2l10.6113 67h80zM424.838 744l77.9814 -38l-177.392 -154l-45.5654 28z" />
    <glyph glyph-name="acircumflex" unicode="&#xe2;" horiz-adv-x="577" 
d="M335.779 409c-93 0 -165.829 -81 -179.768 -169c-14.5713 -92 25.6494 -179 125.649 -179c103 0 170.146 83 185.192 178c14.8887 94 -32.0742 170 -131.074 170zM579.44 470l-74.4404 -470h-80l10.2949 65h-2c-49.2363 -52 -108.354 -78 -174.354 -78
c-138 0 -206.47 117 -185.88 247c21.2236 134 124.438 249 265.438 249c64 0 117.249 -30 148.33 -80h2l10.6113 67h80zM227.664 604l177.064 133l136.936 -133l-65.127 -45l-86.5381 85l-112.462 -85z" />
    <glyph glyph-name="acute" unicode="&#xb4;" horiz-adv-x="358" 
d="M314.838 744l77.9814 -38l-177.392 -154l-45.5654 28z" />
    <glyph glyph-name="adieresis" unicode="&#xe4;" horiz-adv-x="577" 
d="M335.779 409c-93 0 -165.829 -81 -179.768 -169c-14.5713 -92 25.6494 -179 125.649 -179c103 0 170.146 83 185.192 178c14.8887 94 -32.0742 170 -131.074 170zM579.44 470l-74.4404 -470h-80l10.2949 65h-2c-49.2363 -52 -108.354 -78 -174.354 -78
c-138 0 -206.47 117 -185.88 247c21.2236 134 124.438 249 265.438 249c64 0 117.249 -30 148.33 -80h2l10.6113 67h80zM301.661 705c30 0 50.1982 -24 45.4473 -54c-4.75195 -30 -32.5527 -54 -62.5527 -54s-50.1992 24 -45.4473 54c4.75098 30 32.5527 54 62.5527 54z
M498.661 705c30 0 50.1982 -24 45.4473 -54c-4.75195 -30 -32.5527 -54 -62.5527 -54s-50.1992 24 -45.4473 54c4.75098 30 32.5527 54 62.5527 54z" />
    <glyph glyph-name="ae" unicode="&#xe6;" horiz-adv-x="843" 
d="M492.298 286h281c-0.229492 68 -48.5186 123 -118.519 123c-69 0 -141.711 -55 -162.481 -123zM263.319 223c-50 0 -122.643 -23 -132.146 -83c-9.66113 -61 54.4873 -79 105.487 -79c53 0 129.852 18 140.146 83c9.66113 61 -66.4883 79 -113.488 79zM843.527 218h-370
c-12.7793 -87 38.1338 -157 129.134 -157c68 0 118.494 41 158.363 97l61.8232 -39c-58.3047 -84 -141.906 -132 -237.906 -132c-70 0 -133.091 31 -165.271 93c-49.7705 -68 -113.729 -93 -190.729 -93c-94 0 -195.349 42 -178.084 151
c17.2637 109 126.707 156 220.707 156c52 0 89.2578 -11 127.665 -40c13.7295 93 -8.4502 155 -110.45 155c-49 0 -99.2178 -14 -148.752 -30l12.0371 76c52.376 15 101.435 28 153.435 28c70 0 139.249 -30 158.638 -97c46.8193 62 127.362 97 197.362 97
c151 0 210.202 -125 182.028 -265z" />
    <glyph glyph-name="agrave" unicode="&#xe0;" horiz-adv-x="577" 
d="M335.779 409c-93 0 -165.829 -81 -179.768 -169c-14.5713 -92 25.6494 -179 125.649 -179c103 0 170.146 83 185.192 178c14.8887 94 -32.0742 170 -131.074 170zM579.44 470l-74.4404 -470h-80l10.2949 65h-2c-49.2363 -52 -108.354 -78 -174.354 -78
c-138 0 -206.47 117 -185.88 247c21.2236 134 124.438 249 265.438 249c64 0 117.249 -30 148.33 -80h2l10.6113 67h80zM299.819 706l90.0186 38l93.0244 -164l-54.4346 -28z" />
    <glyph glyph-name="ampersand" unicode="&#x26;" horiz-adv-x="695" 
d="M379.925 492l7.79199 5c48.2266 33 103.82 62 113.323 122c7.28516 46 -25.8047 77 -69.8047 77c-46 0 -88.7021 -36 -96.1455 -83c-6.01953 -38 14.5459 -66 30.7949 -96zM581 0l-64.2109 106c-76.5029 -60 -165.848 -119 -259.848 -119
c-115 0 -206.379 86 -187.373 206c19.9561 126 120.459 186 224.279 248l9.9502 6c-26.5557 47 -59.4785 98 -49.6592 160c15.0469 95 96.3418 160 190.342 160c85 0 150.497 -60 136.56 -148c-14.2549 -90 -90.0156 -139 -162.776 -188l126.848 -203l100.681 99
l53.0801 -50l-113.738 -112l101.866 -165h-106zM342.978 385l-39.8008 -24c-63.1768 -39 -138.463 -85 -150.658 -162c-11.2451 -71 40.46 -136 111.46 -136c76 0 151.345 59 212.788 106z" />
    <glyph glyph-name="aring" unicode="&#xe5;" horiz-adv-x="577" 
d="M335.779 409c-93 0 -165.829 -81 -179.768 -169c-14.5713 -92 25.6494 -179 125.649 -179c103 0 170.146 83 185.192 178c14.8887 94 -32.0742 170 -131.074 170zM579.44 470l-74.4404 -470h-80l10.2949 65h-2c-49.2363 -52 -108.354 -78 -174.354 -78
c-138 0 -206.47 117 -185.88 247c21.2236 134 124.438 249 265.438 249c64 0 117.249 -30 148.33 -80h2l10.6113 67h80zM412.272 772c53 0 90.0312 -44 81.6367 -97c-8.55273 -54 -58.5215 -98 -112.521 -98s-91.0312 44 -82.4785 98c8.39453 53 59.3633 97 113.363 97z
M404.354 722c-26 0 -51.3262 -21 -55.4443 -47s14.3975 -48 40.3975 -48s50.4844 22 54.6025 48s-13.5557 47 -39.5557 47z" />
    <glyph glyph-name="asciicircum" unicode="^" 
d="M117 322l274.422 432h72l137.578 -432h-89l-101.051 328l-206.949 -328h-87z" />
    <glyph glyph-name="asciitilde" unicode="~" 
d="M162.242 172l-64.5654 28c41.6709 80 97.2822 147 162.282 147c34 0 70.5156 -22 101.873 -45c30.5156 -22 61.4473 -54 88.4473 -54c28 0 61.8105 43 86.3633 97l63.5654 -28c-39.6709 -80 -96.2822 -147 -162.282 -147c-34 0 -68.1992 24 -95.0312 44
c-39.4072 29 -68.4473 54 -95.4473 54c-28 0 -59.6523 -42 -85.2051 -96z" />
    <glyph glyph-name="asterisk" unicode="*" horiz-adv-x="592" 
d="M362.248 614l16.1738 140h75l-28.1738 -140l139.761 49l12.5967 -72l-142.02 -38l69.5781 -110l-68.127 -45l-59.3105 118l-96.6895 -118l-53.873 45l105.422 110l-129.981 38l35.4043 72z" />
    <glyph glyph-name="at" unicode="@" horiz-adv-x="800" 
d="M315.801 346c-10.7695 -68 18.9941 -120 88.9941 -120c89 0 136.879 75 157.124 146c22.6709 80 -11.6182 135 -80.6182 135c-81 0 -153.305 -84 -165.5 -161zM607.984 505l23.6611 61h71l-90.3877 -255c-12.2266 -33 -33.4629 -85 0.537109 -85
c46 0 126.205 96 146.251 191c37.876 176 -70.9688 278 -233.969 278c-178 0 -328.54 -136 -357.366 -318c-30.4102 -192 92.6338 -318 273.634 -318c83 0 151.534 16 198.285 46l61.9229 -51c-75.7021 -36 -158.611 -67 -279.611 -67c-215 0 -361.867 165 -326.23 390
c35.1611 222 230.77 390 443.77 390c88 0 164.724 -27 221.379 -86c58.6553 -59 90.46 -136 75.7305 -229c-12.9873 -82 -47.0254 -158 -95.2607 -210c-57.9785 -63 -119.938 -88 -167.621 -86c-27.8418 1 -44.3574 23 -44.3389 61c-39.3848 -34 -85.6611 -61 -145.661 -61
c-88 0 -155.171 81 -139.016 183c19.0059 120 117.378 236 241.378 236c51 0 90.1494 -18 121.914 -70z" />
    <glyph glyph-name="atilde" unicode="&#xe3;" horiz-adv-x="577" 
d="M335.779 409c-93 0 -165.829 -81 -179.768 -169c-14.5713 -92 25.6494 -179 125.649 -179c103 0 170.146 83 185.192 178c14.8887 94 -32.0742 170 -131.074 170zM579.44 470l-74.4404 -470h-80l10.2949 65h-2c-49.2363 -52 -108.354 -78 -174.354 -78
c-138 0 -206.47 117 -185.88 247c21.2236 134 124.438 249 265.438 249c64 0 117.249 -30 148.33 -80h2l10.6113 67h80zM256.13 588l-42.8232 39c29.3359 40 64.5127 79 114.513 79c30 0 55.2578 -11 77.3564 -23c23.2578 -11 42.3574 -23 60.3574 -23
c28 0 48.1182 26 63.6025 48l40.9814 -38c-24.9688 -44 -69.8291 -81 -118.829 -81c-24 0 -48.2578 11 -71.3574 23c-23.2578 11 -45.5156 22 -66.5156 22c-28 0 -43.8008 -24 -57.2852 -46z" />
    <glyph glyph-name="b" unicode="b" horiz-adv-x="577" 
d="M365.779 409c-93 0 -165.829 -81 -179.768 -169c-14.5713 -92 25.6494 -179 125.649 -179c103 0 170.146 83 185.192 178c14.8887 94 -32.0742 170 -131.074 170zM72 0l130.667 825h80l-66.8379 -422h2c45.9189 50 109.67 80 173.67 80c140 0 207.786 -115 186.722 -248
c-20.749 -131 -126.279 -248 -264.279 -248c-65 0 -119.724 27 -149.646 78h-2l-10.2949 -65h-80z" />
    <glyph glyph-name="backslash" unicode="\" horiz-adv-x="570" 
d="M143.915 795l70.752 30l337.333 -825l-69.752 -30z" />
    <glyph glyph-name="bar" unicode="|" horiz-adv-x="570" 
d="M454.667 825l-130.667 -825h-78l130.667 825h78z" />
    <glyph glyph-name="braceleft" unicode="{" horiz-adv-x="334" 
d="M89.3291 242l10.1367 64c71.3262 21 86.5615 73 100.341 160l29.6182 187c12.8291 81 76.3818 135 106.382 135h73l-11.7207 -74h-40c-36 0 -40.751 -30 -48.0371 -76l-29.9346 -189c-18.5303 -117 -89.4502 -167 -103.717 -175c11.7324 -8 66.8135 -58 48.124 -176
l-29.7764 -188c-7.28516 -46 -12.0371 -76 23.9629 -76h40l-11.7197 -74h-73c-30 0 -76.4473 54 -63.6182 135l29.459 186c13.9375 88 15.1738 140 -49.5 161z" />
    <glyph glyph-name="braceright" unicode="}" horiz-adv-x="334" 
d="M331.466 306l-10.1367 -64c-71.3262 -21 -86.5625 -73 -100.5 -161l-29.459 -186c-12.8291 -81 -76.3818 -135 -106.382 -135h-73l11.7197 74h40c36 0 40.752 30 48.0371 76l29.7764 188c18.6895 118 89.6084 168 103.876 176c-11.7334 8 -66.8135 58 -48.2832 175
l29.9346 189c7.28613 46 12.0371 76 -23.9629 76h-40l11.7207 74h73c30 0 76.4473 -54 63.6182 -135l-29.6182 -187c-13.7793 -87 -15.0146 -139 49.6592 -160z" />
    <glyph glyph-name="bracketleft" unicode="[" horiz-adv-x="315" 
d="M299.086 714l-139.378 -880h108l-11.7197 -74h-190l162.818 1028h190l-11.7207 -74h-108z" />
    <glyph glyph-name="bracketright" unicode="]" horiz-adv-x="315" 
d="M102.708 -166l139.378 880h-108l11.7207 74h190l-162.818 -1028h-190l11.7197 74h108z" />
    <glyph glyph-name="breve" unicode="&#x2d8;" horiz-adv-x="485" 
d="M192.403 716h69c9.87207 -45 35.2295 -68 84.2295 -68s81.6426 23 105.771 68h69c-24.1465 -83 -103.541 -136 -185.541 -136c-81 0 -144.605 53 -142.459 136z" />
    <glyph glyph-name="brokenbar" unicode="&#xa6;" horiz-adv-x="570" 
d="M376.267 330l-52.2666 -330h-78l52.2666 330h78zM454.667 825l-52.2666 -330h-78l52.2666 330h78z" />
    <glyph glyph-name="bullet" unicode="&#x2022;" horiz-adv-x="592" 
d="M325.935 189c-103 0 -174.854 83 -158.224 188c15.6299 105 112.935 189 217.935 189s175.695 -84 159.065 -189c-16.6309 -105 -115.776 -188 -218.776 -188z" />
    <glyph glyph-name="c" unicode="c" horiz-adv-x="476" 
d="M494.056 436l-16.7891 -106h-2c-29.5557 47 -70.4873 79 -133.487 79c-97 0 -178.671 -80 -193.559 -174c-14.7305 -93 36.4404 -174 134.44 -174c67 0 118.752 30 165.829 81h2l-16.9473 -107c-50.9092 -31 -100.602 -48 -156.602 -48c-142 0 -233.212 106 -210.721 248
c22.1729 140 152.278 248 290.278 248c51 0 100.308 -17 137.557 -47z" />
    <glyph glyph-name="caron" unicode="&#x2c7;" horiz-adv-x="470" 
d="M501.602 692l-177.064 -133l-136.936 133l65.1279 45l86.5371 -85l112.462 85z" />
    <glyph glyph-name="ccedilla" unicode="&#xe7;" horiz-adv-x="476" 
d="M494.056 436l-16.7891 -106h-2c-29.5557 47 -70.4873 79 -133.487 79c-97 0 -178.671 -80 -193.559 -174c-14.7305 -93 36.4404 -174 134.44 -174c67 0 118.752 30 165.829 81h2l-16.9473 -107c-50.9092 -31 -100.602 -48 -156.602 -48c-142 0 -233.212 106 -210.721 248
c22.1729 140 152.278 248 290.278 248c51 0 100.308 -17 137.557 -47zM315.605 -53l-137.124 -146l-51.5654 28l119.441 148z" />
    <glyph glyph-name="cedilla" unicode="&#xb8;" horiz-adv-x="325" 
d="M239.605 -53l-137.124 -146l-51.5654 28l119.441 148z" />
    <glyph glyph-name="cent" unicode="&#xa2;" 
d="M583.972 587l-16.7891 -106h-2c-23.1396 37 -59.0713 69 -105.963 76l-54.4844 -344c51.1094 7 98.4941 41 132.671 80h2l-16.9473 -107c-39.8008 -24 -84.9688 -44 -129.443 -47l-17.7393 -112h-66l17.8975 113c-115.941 13 -190.519 123 -171.988 240
c19.4814 123 123.062 234 249.438 249l16.7891 106h66l-16.4717 -104c42.3662 -4 80.9902 -19 113.031 -44zM338.895 214l54.0088 341c-80.376 -15 -142.729 -93 -154.767 -169c-12.5127 -79 23.292 -156 100.758 -172z" />
    <glyph glyph-name="circumflex" unicode="&#x2c6;" horiz-adv-x="470" 
d="M173.664 604l177.064 133l136.936 -133l-65.127 -45l-86.5381 85l-112.462 -85z" />
    <glyph glyph-name="colon" unicode=":" horiz-adv-x="308" 
d="M169.68 99c31 0 52.041 -25 47.2891 -55c-4.91016 -31 -34.0273 -57 -65.0273 -57s-51.8828 26 -46.9727 57c4.75195 30 33.7109 55 64.7109 55zM230.499 483c31 0 52.041 -25 47.2891 -55c-4.90918 -31 -34.0273 -57 -65.0273 -57s-51.8818 26 -46.9727 57
c4.75195 30 33.7109 55 64.7109 55z" />
    <glyph glyph-name="comma" unicode="," horiz-adv-x="308" 
d="M168.422 110l69.8828 -26l-153.547 -256l-50.5156 22z" />
    <glyph glyph-name="copyright" unicode="&#xa9;" horiz-adv-x="800" 
d="M397.941 -13c-219 0 -364.6 173 -330.23 390s234.77 390 453.77 390s364.6 -173 330.23 -390s-234.77 -390 -453.77 -390zM407.444 47c179 0 355.124 146 384.267 330s-100.733 330 -279.733 330s-355.124 -146 -384.267 -330s100.733 -330 279.733 -330zM671.382 457
h-61c-3.28906 55 -44.0625 88 -110.062 88c-108 0 -169.463 -85 -181.816 -163c-14.5713 -92 31.708 -166 131.708 -166c66 0 113.385 34 136.413 91h61c-26.8887 -94 -116.916 -151 -206.916 -151c-132 0 -202.162 100 -182.522 224c20.4316 129 117.637 225 252.637 225
c92 0 157.289 -55 160.56 -148z" />
    <glyph glyph-name="currency" unicode="&#xa4;" 
d="M144.875 498l41.7021 36l35.3477 -42c60.1768 39 109.187 58 173.187 58s106.99 -19 154.813 -58l48.6523 42l30.2979 -36l-46.335 -40c27.9717 -57 37.0029 -101 27.9756 -158c-9.02832 -57 -31.9971 -101 -78.0254 -158l33.665 -40l-41.7021 -36l-35.3477 42
c-60.1768 -39 -109.187 -58 -173.187 -58s-106.99 19 -154.813 58l-48.6523 -42l-30.2979 36l46.335 40c-27.9717 57 -37.0029 101 -27.9746 158c9.02734 57 31.9961 101 78.0244 158zM384.975 486c-108.316 -2 -205.513 -79 -220.459 -186
c-13.8389 -100 56.54 -186 161.54 -186s202.621 86 220.46 186c18.9463 107 -53.8574 184 -161.541 186z" />
    <glyph glyph-name="d" unicode="d" horiz-adv-x="577" 
d="M335.779 409c-93 0 -165.829 -81 -179.768 -169c-14.5713 -92 25.6494 -179 125.649 -179c103 0 170.146 83 185.192 178c14.8887 94 -32.0742 170 -131.074 170zM425 0l10.2949 65h-2c-47.0771 -51 -110.354 -78 -174.354 -78c-138 0 -206.47 117 -185.88 247
c21.2236 134 124.438 249 265.438 249c63 0 118.249 -30 148.33 -80h2l66.8379 422h80l-130.667 -825h-80z" />
    <glyph glyph-name="dagger" unicode="&#x2020;" horiz-adv-x="592" 
d="M374.422 754h82l-29.3018 -185h167l-12.3535 -78h-167l-103.583 -654h-82l103.583 654h-167l12.3535 78h167z" />
    <glyph glyph-name="daggerdbl" unicode="&#x2021;" horiz-adv-x="592" 
d="M374.422 754h82l-29.3018 -185h167l-12.3535 -78h-167l-57.4932 -363h167l-12.3545 -78h-167l-33.7354 -213h-82l33.7354 213h-167l12.3545 78h167l57.4932 363h-167l12.3535 78h167z" />
    <glyph glyph-name="degree" unicode="&#xb0;" horiz-adv-x="400" 
d="M447.723 617c-13.1455 -83 -91.7578 -150 -173.758 -150c-83 0 -139.388 67 -126.242 150c11.9873 82 90.7578 150 173.758 150c82 0 139.229 -68 126.242 -150zM399.723 617c8.87012 56 -29.8447 102 -86.8447 102c-56 0 -109.285 -46 -117.155 -102
c-9.02734 -57 28.8447 -102 85.8447 -102c56 0 109.128 45 118.155 102z" />
    <glyph glyph-name="dieresis" unicode="&#xa8;" horiz-adv-x="467" 
d="M246.661 705c30 0 50.1982 -24 45.4473 -54c-4.75195 -30 -32.5527 -54 -62.5527 -54s-50.1992 24 -45.4473 54c4.75098 30 32.5527 54 62.5527 54zM443.661 705c30 0 50.1982 -24 45.4473 -54c-4.75195 -30 -32.5527 -54 -62.5527 -54s-50.1992 24 -45.4473 54
c4.75098 30 32.5527 54 62.5527 54z" />
    <glyph glyph-name="divide" unicode="&#xf7;" 
d="M100.369 217l12.3545 78h484l-12.3545 -78h-484zM327.64 124c31 0 52.8818 -26 47.9717 -57c-5.06836 -32 -35.0273 -57 -66.0273 -57s-53.041 25 -47.9727 57c4.91016 31 35.0283 57 66.0283 57zM387.509 502c31 0 52.8818 -26 47.9717 -57
c-5.06836 -32 -35.0273 -57 -66.0273 -57s-53.041 25 -47.9727 57c4.91016 31 35.0283 57 66.0283 57z" />
    <glyph glyph-name="dollar" unicode="$" 
d="M410.484 344l-42.4473 -268c66.3262 21 114.195 77 124.649 143c10.1357 64 -34.1621 100 -82.2021 125zM363.332 463l34.6855 219c-54.584 -10 -102.186 -58 -110.897 -113c-8.71094 -55 35.3789 -86 76.2119 -106zM300.929 69l48.3066 305
c-84.9814 38 -163.221 87 -145.64 198c16.4717 104 105.717 175 206.935 189l16.3135 103h66l-16.3135 -103c66.5742 -9 119.447 -54 139.944 -114l-72.8105 -43c-14.457 35 -39.0713 69 -79.8047 77l-39.1211 -247c92.3486 -42 171.271 -93 152.265 -213
c-17.5811 -111 -110.311 -204 -221.795 -226l-17.4219 -110h-66l16.4717 104c-107.208 5 -182.904 89 -185.273 194l84.6426 23c-1.92871 -69 43.0938 -132 113.302 -137z" />
    <glyph glyph-name="dotaccent" unicode="&#x2d9;" horiz-adv-x="358" 
d="M292.403 716c30 0 50.1982 -24 45.4473 -54c-4.75195 -30 -32.5527 -54 -62.5527 -54s-50.1992 24 -45.4473 54c4.75098 30 32.5527 54 62.5527 54z" />
    <glyph glyph-name="dotlessi" unicode="&#x131;" horiz-adv-x="262" 
d="M245.44 470l-74.4404 -470h-80l74.4404 470h80z" />
    <glyph glyph-name="e" unicode="e" horiz-adv-x="519" 
d="M519.527 218h-369c-12.7793 -87 38.1338 -157 129.134 -157c68 0 118.494 41 158.363 97l61.8232 -39c-58.3047 -84 -141.906 -132 -237.906 -132c-140 0 -213.054 107 -191.672 242c22.0156 139 121.229 254 268.229 254c151 0 211.202 -125 181.028 -265zM165.298 286
h281c-0.229492 68 -48.5186 123 -118.519 123c-69 0 -141.711 -55 -162.481 -123z" />
    <glyph glyph-name="eacute" unicode="&#xe9;" horiz-adv-x="519" 
d="M519.527 218h-369c-12.7793 -87 38.1338 -157 129.134 -157c68 0 118.494 41 158.363 97l61.8232 -39c-58.3047 -84 -141.906 -132 -237.906 -132c-140 0 -213.054 107 -191.672 242c22.0156 139 121.229 254 268.229 254c151 0 211.202 -125 181.028 -265zM165.298 286
h281c-0.229492 68 -48.5186 123 -118.519 123c-69 0 -141.711 -55 -162.481 -123zM395.838 744l77.9814 -38l-177.392 -154l-45.5654 28z" />
    <glyph glyph-name="ecircumflex" unicode="&#xea;" horiz-adv-x="519" 
d="M519.527 218h-369c-12.7793 -87 38.1338 -157 129.134 -157c68 0 118.494 41 158.363 97l61.8232 -39c-58.3047 -84 -141.906 -132 -237.906 -132c-140 0 -213.054 107 -191.672 242c22.0156 139 121.229 254 268.229 254c151 0 211.202 -125 181.028 -265zM165.298 286
h281c-0.229492 68 -48.5186 123 -118.519 123c-69 0 -141.711 -55 -162.481 -123zM198.664 604l177.064 133l136.936 -133l-65.127 -45l-86.5381 85l-112.462 -85z" />
    <glyph glyph-name="edieresis" unicode="&#xeb;" horiz-adv-x="519" 
d="M519.527 218h-369c-12.7793 -87 38.1338 -157 129.134 -157c68 0 118.494 41 158.363 97l61.8232 -39c-58.3047 -84 -141.906 -132 -237.906 -132c-140 0 -213.054 107 -191.672 242c22.0156 139 121.229 254 268.229 254c151 0 211.202 -125 181.028 -265zM165.298 286
h281c-0.229492 68 -48.5186 123 -118.519 123c-69 0 -141.711 -55 -162.481 -123zM272.661 705c30 0 50.1982 -24 45.4473 -54c-4.75195 -30 -32.5527 -54 -62.5527 -54s-50.1992 24 -45.4473 54c4.75098 30 32.5527 54 62.5527 54zM469.661 705
c30 0 50.1982 -24 45.4473 -54c-4.75195 -30 -32.5527 -54 -62.5527 -54s-50.1992 24 -45.4473 54c4.75098 30 32.5527 54 62.5527 54z" />
    <glyph glyph-name="egrave" unicode="&#xe8;" horiz-adv-x="519" 
d="M519.527 218h-369c-12.7793 -87 38.1338 -157 129.134 -157c68 0 118.494 41 158.363 97l61.8232 -39c-58.3047 -84 -141.906 -132 -237.906 -132c-140 0 -213.054 107 -191.672 242c22.0156 139 121.229 254 268.229 254c151 0 211.202 -125 181.028 -265zM165.298 286
h281c-0.229492 68 -48.5186 123 -118.519 123c-69 0 -141.711 -55 -162.481 -123zM270.819 706l90.0186 38l93.0244 -164l-54.4346 -28z" />
    <glyph glyph-name="eight" unicode="8" 
d="M364.227 355c-82 0 -156.295 -65 -168.966 -145s41.0342 -145 123.034 -145s156.295 65 168.966 145s-41.0342 145 -123.034 145zM429.48 767c118 0 196.904 -89 177.739 -210c-10.4531 -66 -54.9062 -132 -118.133 -165c65.9316 -32 94.5273 -104 82.332 -181
c-20.5898 -130 -135.478 -224 -265.478 -224s-215.112 94 -194.522 224c12.1953 77 63.5996 149 139.668 181c-52.7734 33 -76.3203 99 -65.8672 165c19.165 121 126.261 210 244.261 210zM417.127 689c-72 0 -140.187 -58 -151.59 -130
c-11.5625 -73 38.0928 -132 110.093 -132s140.345 59 151.907 132c11.4033 72 -38.4102 130 -110.41 130z" />
    <glyph glyph-name="ellipsis" unicode="&#x2026;" horiz-adv-x="1000" 
d="M183.68 99c31 0 52.041 -25 47.2891 -55c-4.91016 -31 -34.0273 -57 -65.0273 -57s-51.8828 26 -46.9727 57c4.75195 30 33.7109 55 64.7109 55zM515.68 99c31 0 52.041 -25 47.2891 -55c-4.91016 -31 -34.0273 -57 -65.0273 -57s-51.8828 26 -46.9727 57
c4.75195 30 33.7109 55 64.7109 55zM847.68 99c31 0 52.041 -25 47.2891 -55c-4.91016 -31 -34.0273 -57 -65.0273 -57s-51.8828 26 -46.9727 57c4.75195 30 33.7109 55 64.7109 55z" />
    <glyph glyph-name="emdash" unicode="&#x2014;" horiz-adv-x="1000" 
d="M44.0303 278h1000l-11.7207 -74h-1000z" />
    <glyph glyph-name="endash" unicode="&#x2013;" horiz-adv-x="500" 
d="M44.0303 278h500.001l-11.7207 -74h-500z" />
    <glyph glyph-name="equal" unicode="=" 
d="M125.077 373h484l-12.3535 -78h-484zM100.369 217h484l-12.3535 -78h-484z" />
    <glyph glyph-name="eth" unicode="&#xf0;" horiz-adv-x="561" 
d="M350.779 409c-99 0 -179.513 -79 -194.559 -174c-15.2051 -96 40.4404 -174 139.44 -174s179.354 78 194.56 174c15.0459 95 -40.4414 174 -139.441 174zM159.807 788l55.8604 37c36.6152 -34 72.3877 -67 110.687 -103l141.313 103l36.6641 -40l-140.313 -103
c92.6963 -84 222.87 -266 201.628 -438c-16.8564 -138 -144.704 -257 -281.704 -257s-229.736 109 -207.88 247c21.8574 138 148.438 249 286.438 249c24 0 42.8916 -7 64.9912 -19l2.31641 2c-18.0801 50 -75.4102 130 -122.44 174l-135.839 -100l-36.5059 41l134.68 99
c-30.6152 34 -66.9131 70 -109.895 108z" />
    <glyph glyph-name="exclam" unicode="!" horiz-adv-x="338" 
d="M184.68 99c31 0 52.041 -25 47.2891 -55c-4.91016 -31 -34.0273 -57 -65.0273 -57s-51.8828 26 -46.9727 57c4.75195 30 33.7109 55 64.7109 55zM152.232 153l95.1895 601h82l-95.1895 -601h-82z" />
    <glyph glyph-name="exclamdown" unicode="&#xa1;" horiz-adv-x="338" 
d="M245.499 483c31 0 52.041 -25 47.2891 -55c-4.90918 -31 -34.0273 -57 -65.0273 -57s-51.8818 26 -46.9727 57c4.75195 30 33.7109 55 64.7109 55zM260.208 317l-95.1895 -601h-82l95.1895 601h82z" />
    <glyph glyph-name="f" unicode="f" horiz-adv-x="274" 
d="M225.72 396l-62.7197 -396h-80l62.7197 396h-44l11.7207 74h44l29.6182 187c6.17676 39 13.9375 88 40.3223 122c32.6523 42 82.3447 59 130.345 59c19 0 37.3662 -4 55.416 -10l-12.8291 -81c-17.0498 6 -32.2578 11 -52.2578 11c-65 0 -72.2852 -46 -85.4316 -129
l-25.1826 -159h119l-11.7207 -74h-119z" />
    <glyph glyph-name="fi" unicode="&#xfb01;" horiz-adv-x="519" 
d="M213.72 396l-62.7197 -396h-80l62.7197 396h-44l11.7207 74h44l29.6182 187c6.17676 39 13.9375 88 40.3223 122c32.6523 42 82.3447 59 130.345 59c19 0 37.3662 -4 55.416 -10l-12.8291 -81c-17.0498 6 -32.2578 11 -52.2578 11c-65 0 -72.2852 -46 -85.4316 -129
l-25.1826 -159h119l-11.7207 -74h-119zM502.44 470l-74.4404 -470h-80l74.4404 470h80zM499.502 704c31 0 52.8828 -26 47.9727 -57c-5.06836 -32 -35.0283 -57 -66.0283 -57s-53.04 25 -47.9717 57c4.91016 31 35.0273 57 66.0273 57z" />
    <glyph glyph-name="five" unicode="5" 
d="M630.067 676h-241l-74.5 -161l45.6338 4c149 0 232.469 -117 209.345 -263c-24.708 -156 -165.604 -269 -319.604 -269c-99 0 -173.081 50 -209.618 135l74.6016 48c24.3389 -61 78.3701 -105 150.37 -105c111 0 203.146 83 220.568 193
c16.9473 107 -54.0156 183 -159.016 183c-52 0 -103.168 -20 -150.603 -48l166.177 361h300z" />
    <glyph glyph-name="fl" unicode="&#xfb02;" horiz-adv-x="501" 
d="M558.667 825l-130.667 -825h-80l130.667 825h80zM213.72 396l-62.7197 -396h-80l62.7197 396h-44l11.7207 74h44l29.6182 187c6.17676 39 13.9375 88 40.3223 122c32.6523 42 82.3447 59 130.345 59c19 0 37.3662 -4 55.416 -10l-12.8291 -81
c-17.0498 6 -32.2578 11 -52.2578 11c-65 0 -72.2852 -46 -85.4316 -129l-25.1826 -159h119l-11.7207 -74h-119z" />
    <glyph glyph-name="florin" unicode="&#x192;" 
d="M668.667 825l-26.8789 -75c-14.8916 7 -30.2578 11 -48.2578 11c-28 0 -50.9502 -6 -69.0684 -32c-17.1182 -26 -29.9785 -63 -40.4131 -91l-46.54 -136h120l-21.7705 -68h-121l-107.732 -314c-18.8691 -56 -42.9062 -132 -82.5088 -180
c-49.1865 -58 -123.671 -80 -191.671 -80l-49.3662 4l27.8789 75l33.8418 -1c119 0 148.096 89 180.459 186l106.099 310h-82l21.7705 68h84l53.0244 158c32.5215 98 79.1924 178 194.192 178c23 0 45.3662 -4 65.9414 -13z" />
    <glyph glyph-name="four" unicode="4" 
d="M507.677 200h93l-12.3535 -78h-93l-19.3232 -122h-84l19.3232 122h-386l574.75 674h2zM423.677 200l54.0088 341h-2l-291.009 -341h239z" />
    <glyph glyph-name="fraction" unicode="&#x2044;" horiz-adv-x="161" 
d="M399.48 767l40.1992 -24l-558.738 -756l-40.1992 24z" />
    <glyph glyph-name="g" unicode="g" horiz-adv-x="580" 
d="M330.779 409c-93 0 -165.829 -81 -179.768 -169c-14.5713 -92 25.6494 -179 125.649 -179c103 0 170.146 83 185.192 178c14.8887 94 -32.0742 170 -131.074 170zM574.44 470l-70.7979 -447c-11.8789 -75 -22.1738 -140 -79.9932 -202
c-52.8701 -56 -125.146 -83 -195.146 -83c-131 0 -214.854 83 -196.789 216h80c-12.7793 -87 41.5098 -142 127.51 -142c124 0 165.413 91 182.202 197l8.86914 56h-2c-45.7607 -49 -112.354 -78 -175.354 -78c-137 0 -205.786 115 -185.038 246
c20.9072 132 127.596 250 266.596 250c65 0 117.407 -29 147.33 -80h2l10.6113 67h80z" />
    <glyph glyph-name="germandbls" unicode="&#xdf;" horiz-adv-x="577" 
d="M72 0l62.7197 396h-44l11.7207 74h44l22.8076 144c8.39453 53 22.5801 111 63.3906 154c44.6025 48 112.087 70 170.087 70c109 0 181.646 -78 164.224 -188c-9.50293 -60 -48.8477 -119 -107.124 -146c93.6152 -34 138.985 -139 122.83 -241
c-24.708 -156 -178.397 -274 -330.714 -276l11.7197 74c113.109 7 219.255 90 237.469 205c8.87012 56 -8.10254 113 -47.5586 148c-33.4072 29 -80.665 40 -127.031 44l11.7207 74c73.8408 -1 137.285 46 149.322 122c10.4531 66 -32.5771 110 -97.5771 110
c-43 0 -90.8516 -18 -113.504 -60c-19.3848 -34 -27.2539 -90 -33.1143 -127l-91.3877 -577h-80z" />
    <glyph glyph-name="grave" unicode="`" horiz-adv-x="358" 
d="M189.819 706l90.0186 38l93.0244 -164l-54.4346 -28z" />
    <glyph glyph-name="greater" unicode="&#x3e;" 
d="M131.412 413l13.4629 85l451.215 -207l-11.0869 -70l-516.785 -207l13.4619 85l392.866 157z" />
    <glyph glyph-name="guillemotleft" unicode="&#xab;" horiz-adv-x="500" 
d="M335.012 240l108.709 -166l-59.4941 -41l-135.215 207l201.736 213l46.3477 -42zM165.012 240l108.709 -166l-59.4941 -41l-135.215 207l201.736 213l46.3477 -42z" />
    <glyph glyph-name="guillemotright" unicode="&#xbb;" horiz-adv-x="500" 
d="M79.7207 74l161.291 166l-107.916 171l59.6523 42l134.264 -213l-200.785 -207zM249.721 74l161.291 166l-107.916 171l59.6523 42l134.264 -213l-200.785 -207z" />
    <glyph glyph-name="guilsinglleft" unicode="&#x2039;" horiz-adv-x="330" 
d="M165.012 240l108.709 -166l-59.4941 -41l-135.215 207l201.736 213l46.3477 -42z" />
    <glyph glyph-name="guilsinglright" unicode="&#x203a;" horiz-adv-x="330" 
d="M79.7207 74l161.291 166l-107.916 171l59.6523 42l134.264 -213l-200.785 -207z" />
    <glyph glyph-name="h" unicode="h" horiz-adv-x="528" 
d="M206.667 825h80l-64.9375 -410l1.68262 -2c40.1279 45 87.0869 70 145.087 70c130 0 145.112 -94 127.69 -204l-44.1895 -279h-80l41.9717 265c12.0371 76 16.8076 144 -76.1924 144c-110 0 -133.155 -102 -146.46 -186l-35.3193 -223h-80z" />
    <glyph glyph-name="hungarumlaut" unicode="&#x2dd;" horiz-adv-x="467" 
d="M340.521 742l-120.183 -159l-38.2578 11l84.6582 162zM497.521 742l-120.183 -159l-38.2578 11l84.6582 162z" />
    <glyph glyph-name="hyphen" unicode="-" horiz-adv-x="208" 
d="M46.0303 278h205.001l-11.7207 -74h-205z" />
    <glyph glyph-name="i" unicode="i" horiz-adv-x="262" 
d="M245.44 470l-74.4404 -470h-80l74.4404 470h80zM242.502 704c31 0 52.8828 -26 47.9727 -57c-5.06836 -32 -35.0283 -57 -66.0283 -57s-53.04 25 -47.9717 57c4.91016 31 35.0273 57 66.0273 57z" />
    <glyph glyph-name="iacute" unicode="&#xed;" horiz-adv-x="262" 
d="M245.44 470l-74.4404 -470h-80l74.4404 470h80zM266.838 744l77.9814 -38l-177.392 -154l-45.5654 28z" />
    <glyph glyph-name="icircumflex" unicode="&#xee;" horiz-adv-x="262" 
d="M245.44 470l-74.4404 -470h-80l74.4404 470h80zM69.6641 604l177.064 133l136.936 -133l-65.127 -45l-86.5381 85l-112.462 -85z" />
    <glyph glyph-name="idieresis" unicode="&#xef;" horiz-adv-x="262" 
d="M245.44 470l-74.4404 -470h-80l74.4404 470h80zM144.661 705c30 0 50.1982 -24 45.4473 -54c-4.75195 -30 -32.5527 -54 -62.5527 -54s-50.1992 24 -45.4473 54c4.75098 30 32.5527 54 62.5527 54zM341.661 705c30 0 50.1982 -24 45.4473 -54
c-4.75195 -30 -32.5527 -54 -62.5527 -54s-50.1992 24 -45.4473 54c4.75098 30 32.5527 54 62.5527 54z" />
    <glyph glyph-name="igrave" unicode="&#xec;" horiz-adv-x="262" 
d="M245.44 470l-74.4404 -470h-80l74.4404 470h80zM141.819 706l90.0186 38l93.0244 -164l-54.4346 -28z" />
    <glyph glyph-name="j" unicode="j" horiz-adv-x="262" 
d="M245.44 470l-116.254 -734h-80l116.254 734h80zM242.502 704c31 0 52.8828 -26 47.9727 -57c-5.06836 -32 -35.0283 -57 -66.0283 -57s-53.04 25 -47.9717 57c4.91016 31 35.0273 57 66.0273 57z" />
    <glyph glyph-name="k" unicode="k" horiz-adv-x="470" 
d="M282.667 825l-83.7852 -529l198.559 174h107l-232.677 -200l196.236 -270h-106l-155.105 214l-24.3262 -21l-30.5684 -193h-80l130.667 825h80z" />
    <glyph glyph-name="l" unicode="l" horiz-adv-x="227" 
d="M284.667 825l-130.667 -825h-80l130.667 825h80z" />
    <glyph glyph-name="less" unicode="&#x3c;" 
d="M628.875 498l-13.4629 -85l-392.866 -157l343.134 -157l-13.4619 -85l-451.215 207l11.0869 70z" />
    <glyph glyph-name="logicalnot" unicode="&#xac;" 
d="M488.313 103l30.4102 192h-406l12.3535 78h484l-42.7637 -270h-78z" />
    <glyph glyph-name="lslash" unicode="&#x142;" horiz-adv-x="258" 
d="M240.49 464l82.5527 54l-13.9375 -88l-82.5527 -54l-59.5527 -376h-80l52.584 332l-81.5537 -54l13.9385 88l81.5527 54l64.1455 405h80z" />
    <glyph glyph-name="m" unicode="m" horiz-adv-x="768" 
d="M230.44 470l-8.07715 -51h2c31.1768 39 75.1357 64 123.136 64c55 0 100.407 -29 117.646 -78c36.2363 52 96.3535 78 153.354 78c120 0 134.479 -98 118.799 -197l-45.2979 -286h-80l43.2393 273c9.66113 61 17.54 136 -64.46 136c-92 0 -116.097 -89 -127.342 -160
l-39.4375 -249h-80l42.2881 267c9.18652 58 15.4912 142 -61.5088 142c-94 0 -119.047 -95 -130.292 -166l-38.4873 -243h-80l74.4404 470h80z" />
    <glyph glyph-name="macron" unicode="&#xaf;" horiz-adv-x="499" 
d="M187.018 682h342l-10.7695 -68h-342z" />
    <glyph glyph-name="minus" unicode="&#x2212;" 
d="M100.369 217l12.3545 78h484l-12.3545 -78h-484z" />
    <glyph glyph-name="mu" unicode="&#x3bc;" horiz-adv-x="512" 
d="M224.44 470l-41.4961 -262c-12.5127 -79 -14.2832 -147 82.7168 -147s116.771 68 129.283 147l41.4961 262h80l-42.9219 -271c-19.7979 -125 -80.5771 -212 -219.577 -212c-34 0 -62.0498 6 -98.5566 47l-47.1982 -298h-80l116.254 734h80z" />
    <glyph glyph-name="multiply" unicode="&#xd7;" 
d="M136.164 443l63.7109 55l157.383 -187l215.617 187l47.2891 -55l-216.618 -187l157.383 -187l-64.7109 -55l-156.383 187l-216.617 -187l-46.2891 55l216.617 187z" />
    <glyph glyph-name="n" unicode="n" horiz-adv-x="528" 
d="M230.44 470l-9.02832 -57h2c40.1279 45 87.0869 70 145.087 70c130 0 145.112 -94 127.69 -204l-44.1895 -279h-80l41.9717 265c12.0371 76 16.8076 144 -76.1924 144c-110 0 -133.155 -102 -146.46 -186l-35.3193 -223h-80l74.4404 470h80z" />
    <glyph glyph-name="nine" unicode="9" 
d="M242.941 -13l-56.1895 43l211.854 239l-1.68359 2c-20.9502 -6 -43.584 -10 -66.584 -10c-138 0 -226.261 112 -204.562 249c22.6494 143 158.705 257 300.705 257s241.944 -114 219.295 -257c-10.7695 -68 -51.1143 -127 -98.667 -181zM414.127 689
c-98 0 -188.513 -79 -203.876 -176c-15.5215 -98 50.4414 -174 148.441 -174c97 0 188.037 76 203.559 174c15.3633 97 -51.124 176 -148.124 176z" />
    <glyph glyph-name="ntilde" unicode="&#xf1;" horiz-adv-x="528" 
d="M230.44 470l-9.02832 -57h2c40.1279 45 87.0869 70 145.087 70c130 0 145.112 -94 127.69 -204l-44.1895 -279h-80l41.9717 265c12.0371 76 16.8076 144 -76.1924 144c-110 0 -133.155 -102 -146.46 -186l-35.3193 -223h-80l74.4404 470h80zM231.13 588l-42.8232 39
c29.3359 40 64.5127 79 114.513 79c30 0 55.2578 -11 77.3564 -23c23.2578 -11 42.3574 -23 60.3574 -23c28 0 48.1182 26 63.6025 48l40.9814 -38c-24.9688 -44 -69.8291 -81 -118.829 -81c-24 0 -48.2578 11 -71.3574 23c-23.2578 11 -45.5156 22 -66.5156 22
c-28 0 -43.8008 -24 -57.2852 -46z" />
    <glyph glyph-name="numbersign" unicode="#" 
d="M355.422 754h77l-68.3105 -204h124l67.3105 204h79l-67.3105 -204h92l-12.3545 -78h-105l-56.083 -171h101l-12.3545 -78h-115l-75.3193 -223h-76l74.3193 223h-123l-77.3193 -223h-75l74.3193 223h-102l12.3545 78h115l56.083 171h-107l12.3545 78h119zM340.757 472
l-56.083 -171h123l56.083 171h-123z" />
    <glyph glyph-name="o" unicode="o" horiz-adv-x="562" 
d="M278.941 -13c-137 0 -229.736 109 -207.88 247c21.8574 138 148.438 249 286.438 249s229.42 -111 207.562 -249c-21.8564 -138 -149.12 -247 -286.12 -247zM345.779 409c-99 0 -179.513 -79 -194.559 -174c-15.2051 -96 40.4404 -174 139.44 -174s179.354 78 194.56 174
c15.0459 95 -40.4414 174 -139.441 174z" />
    <glyph glyph-name="oacute" unicode="&#xf3;" horiz-adv-x="562" 
d="M278.941 -13c-137 0 -229.736 109 -207.88 247c21.8574 138 148.438 249 286.438 249s229.42 -111 207.562 -249c-21.8564 -138 -149.12 -247 -286.12 -247zM345.779 409c-99 0 -179.513 -79 -194.559 -174c-15.2051 -96 40.4404 -174 139.44 -174s179.354 78 194.56 174
c15.0459 95 -40.4414 174 -139.441 174zM416.838 744l77.9814 -38l-177.392 -154l-45.5654 28z" />
    <glyph glyph-name="ocircumflex" unicode="&#xf4;" horiz-adv-x="562" 
d="M278.941 -13c-137 0 -229.736 109 -207.88 247c21.8574 138 148.438 249 286.438 249s229.42 -111 207.562 -249c-21.8564 -138 -149.12 -247 -286.12 -247zM345.779 409c-99 0 -179.513 -79 -194.559 -174c-15.2051 -96 40.4404 -174 139.44 -174s179.354 78 194.56 174
c15.0459 95 -40.4414 174 -139.441 174zM219.664 604l177.064 133l136.936 -133l-65.127 -45l-86.5381 85l-112.462 -85z" />
    <glyph glyph-name="odieresis" unicode="&#xf6;" horiz-adv-x="562" 
d="M278.941 -13c-137 0 -229.736 109 -207.88 247c21.8574 138 148.438 249 286.438 249s229.42 -111 207.562 -249c-21.8564 -138 -149.12 -247 -286.12 -247zM345.779 409c-99 0 -179.513 -79 -194.559 -174c-15.2051 -96 40.4404 -174 139.44 -174s179.354 78 194.56 174
c15.0459 95 -40.4414 174 -139.441 174zM294.661 705c30 0 50.1982 -24 45.4473 -54c-4.75195 -30 -32.5527 -54 -62.5527 -54s-50.1992 24 -45.4473 54c4.75098 30 32.5527 54 62.5527 54zM491.661 705c30 0 50.1982 -24 45.4473 -54
c-4.75195 -30 -32.5527 -54 -62.5527 -54s-50.1992 24 -45.4473 54c4.75098 30 32.5527 54 62.5527 54z" />
    <glyph glyph-name="oe" unicode="&#x153;" horiz-adv-x="940" 
d="M940.527 218h-371c-12.7793 -87 38.1338 -157 129.134 -157c68 0 118.494 41 158.363 97l61.8232 -39c-58.3047 -84 -141.906 -132 -237.906 -132c-77 0 -152.349 42 -176.262 112c-52.4033 -72 -143.738 -112 -225.738 -112c-137 0 -229.736 109 -207.88 247
c21.8574 138 148.438 249 286.438 249c86.6836 -2 163.19 -43 189.944 -114c48.5625 73 128.739 112 210.056 114c151 0 213.202 -125 183.028 -265zM587.298 286h281c-0.229492 68 -48.5186 123 -118.519 123c-69 0 -141.711 -55 -162.481 -123zM347.779 409
c-99 0 -179.513 -79 -194.559 -174c-15.2051 -96 40.4404 -174 139.44 -174s179.354 78 194.56 174c15.0459 95 -40.4414 174 -139.441 174z" />
    <glyph glyph-name="ogonek" unicode="&#x2db;" horiz-adv-x="337" 
d="M161 0h64l-0.316406 -2c-34.3262 -21 -89.1865 -58 -95.8389 -100c-5.06836 -32 19.873 -45 47.873 -45c21 0 43.1084 7 62.8506 18l-20.4531 -66c-21.584 -10 -43.376 -15 -65.376 -15c-55 0 -103.615 34 -94.2705 93c8.23633 52 56.5713 92 101.531 117z" />
    <glyph glyph-name="ograve" unicode="&#xf2;" horiz-adv-x="562" 
d="M278.941 -13c-137 0 -229.736 109 -207.88 247c21.8574 138 148.438 249 286.438 249s229.42 -111 207.562 -249c-21.8564 -138 -149.12 -247 -286.12 -247zM345.779 409c-99 0 -179.513 -79 -194.559 -174c-15.2051 -96 40.4404 -174 139.44 -174s179.354 78 194.56 174
c15.0459 95 -40.4414 174 -139.441 174zM291.819 706l90.0186 38l93.0244 -164l-54.4346 -28z" />
    <glyph glyph-name="one" unicode="1" 
d="M390.067 676h-125l56.3545 78h165l-119.422 -754h-84z" />
    <glyph glyph-name="onehalf" unicode="&#xbd;" horiz-adv-x="924" 
d="M292.978 707h-81l37.2363 52h112l-71.5898 -452h-60zM635.236 52h197l-8.23633 -52h-317l268.596 250c23.4844 22 35.2861 46 40.0371 76c7.91992 50 -26.0117 82 -79.0117 82c-59 0 -98.5439 -35 -106.938 -88h-60c14.5127 79 87.1738 140 173.174 140
c87 0 145.289 -55 132.776 -134c-5.06836 -32 -20.0869 -70 -47.0459 -95zM724.48 767l40.1992 -24l-558.738 -756l-40.1992 24z" />
    <glyph glyph-name="onequarter" unicode="&#xbc;" horiz-adv-x="924" 
d="M292.978 707h-81l37.2363 52h112l-71.5898 -452h-60zM783.798 125h60l-8.23535 -52h-60l-11.5625 -73h-60l11.5625 73h-245l368.146 405h-1h2zM723.798 125l30.0928 190h-2l-172.093 -190h144zM769.48 767l40.1992 -24l-558.738 -756l-40.1992 24z" />
    <glyph glyph-name="onesuperior" unicode="&#xb9;" horiz-adv-x="369" 
d="M306.978 707h-81l37.2363 52h112l-71.5898 -452h-60z" />
    <glyph glyph-name="ordfeminine" unicode="&#xaa;" horiz-adv-x="346" 
d="M288.512 723c-61 0 -108.761 -49 -117.155 -102c-8.71094 -55 18.8945 -108 83.8945 -108c67 0 109.919 50 118.947 107c9.02734 57 -21.6865 103 -85.6865 103zM446.214 759l-44.665 -282h-52l6.17773 39h-2c-30.9102 -31 -69.4443 -47 -112.444 -47
c-90 0 -134.913 70 -122.56 148c12.8291 81 78.7578 150 170.758 150c41 0 76.1494 -18 96.3975 -48h2l6.33594 40h52zM383.019 360h-305l8.23535 52h305z" />
    <glyph glyph-name="ordmasculine" unicode="&#xba;" horiz-adv-x="337" 
d="M243.282 469c-89 0 -150.705 65 -137.56 148c13.1465 83 94.7578 150 184.758 150s150.389 -67 137.242 -150c-13.1455 -83 -95.4404 -148 -184.44 -148zM283.512 723c-64 0 -116.603 -48 -125.631 -105c-9.18555 -58 28.3701 -105 92.3701 -105s116.444 47 125.63 105
c9.02832 57 -28.3691 105 -92.3691 105zM379.019 360h-305l8.23535 52h305z" />
    <glyph glyph-name="oslash" unicode="&#xf8;" horiz-adv-x="562" 
d="M497.738 434l79.9287 69l43.0811 -50l-79.9287 -69c25.1895 -43 32.7949 -96 24.2422 -150c-22.1738 -140 -147.12 -247 -286.12 -247c-53 0 -104.308 17 -141.239 49l-82.0869 -70l-42.9229 51l81.0869 70c-22.5059 41 -30.7949 96 -22.7178 147
c21.6992 137 148.438 249 286.438 249c53 0 101.149 -18 140.239 -49zM160.332 141l273.171 241c-25.1494 18 -55.7236 27 -87.7236 27c-101 0 -179.671 -80 -194.876 -176c-5.06836 -32 -1.13672 -64 9.42871 -92zM475.425 331l-274.646 -244
c24.1494 -18 55.8818 -26 89.8818 -26c99 0 178.562 73 194.242 172c5.38477 34 2.92871 69 -9.47852 98z" />
    <glyph glyph-name="otilde" unicode="&#xf5;" horiz-adv-x="562" 
d="M278.941 -13c-137 0 -229.736 109 -207.88 247c21.8574 138 148.438 249 286.438 249s229.42 -111 207.562 -249c-21.8564 -138 -149.12 -247 -286.12 -247zM345.779 409c-99 0 -179.513 -79 -194.559 -174c-15.2051 -96 40.4404 -174 139.44 -174s179.354 78 194.56 174
c15.0459 95 -40.4414 174 -139.441 174zM248.13 588l-42.8232 39c29.3359 40 64.5127 79 114.513 79c30 0 55.2578 -11 77.3564 -23c23.2578 -11 42.3574 -23 60.3574 -23c28 0 48.1182 26 63.6025 48l40.9814 -38c-24.9688 -44 -69.8291 -81 -118.829 -81
c-24 0 -48.2578 11 -71.3574 23c-23.2578 11 -45.5156 22 -66.5156 22c-28 0 -43.8008 -24 -57.2852 -46z" />
    <glyph glyph-name="p" unicode="p" horiz-adv-x="577" 
d="M365.779 409c-93 0 -165.829 -81 -179.768 -169c-14.5713 -92 25.6494 -179 125.649 -179c103 0 170.146 83 185.192 178c14.8887 94 -32.0742 170 -131.074 170zM226.44 470l-10.6113 -67h2c47.2354 52 109.67 80 174.67 80c138 0 206.152 -119 185.562 -249
c-21.2236 -134 -124.12 -247 -265.12 -247c-64 0 -118.565 28 -148.488 79h-2l-52.2666 -330h-80l116.254 734h80z" />
    <glyph glyph-name="paragraph" unicode="&#xb6;" horiz-adv-x="592" 
d="M653.422 754l-10.2949 -65h-58l-133.359 -842h-65l133.359 842h-81l-133.359 -842h-65l69.0547 436c-113 0 -183.487 79 -172.105 214c10.1641 121 123.705 257 255.705 257h260z" />
    <glyph glyph-name="parenleft" unicode="(" horiz-adv-x="287" 
d="M308.807 788l65.6152 -34c-80.916 -151 -130.05 -316 -156.024 -480c-25.9756 -164 -29.1084 -329 3.97559 -480l-76.3848 -34c-46.4014 149 -35.249 352 -9.59082 514s78.8096 365 172.409 514z" />
    <glyph glyph-name="parenright" unicode=")" horiz-adv-x="287" 
d="M151.422 754l76.3848 34c46.4004 -149 35.249 -352 9.59082 -514s-78.8105 -365 -172.409 -514l-65.6152 34c80.916 151 130.049 316 156.024 480c25.9746 164 29.1084 329 -3.97559 480z" />
    <glyph glyph-name="percent" unicode="%" horiz-adv-x="797" 
d="M321.48 767c92 0 156.597 -72 141.867 -165c-14.5723 -92 -102.976 -164 -193.976 -164s-156.755 71 -142.024 164c14.7295 93 102.133 165 194.133 165zM311.344 703c-56 0 -111.127 -45 -119.996 -101c-8.71191 -55 32.1611 -100 88.1611 -100s111.127 45 119.839 100
c8.86914 56 -32.0039 101 -88.0039 101zM718.48 767l36.1992 -24l-555.738 -756l-38.8828 26zM648.049 316c92 0 156.597 -72 141.867 -165c-14.5713 -92 -102.975 -164 -193.975 -164s-156.755 71 -142.025 164s102.133 165 194.133 165zM637.913 252
c-56 0 -111.128 -45 -119.997 -101c-8.71094 -55 32.1611 -100 88.1611 -100s111.128 45 119.839 100c8.86914 56 -32.0029 101 -88.0029 101z" />
    <glyph glyph-name="period" unicode="." horiz-adv-x="308" 
d="M169.68 99c31 0 52.041 -25 47.2891 -55c-4.91016 -31 -34.0273 -57 -65.0273 -57s-51.8828 26 -46.9727 57c4.75195 30 33.7109 55 64.7109 55z" />
    <glyph glyph-name="periodcentered" unicode="&#xb7;" horiz-adv-x="308" 
d="M203.258 311c31 0 52.04 -25 47.2881 -55c-4.90918 -31 -34.0273 -57 -65.0273 -57s-51.8818 26 -46.9727 57c4.75195 30 33.7119 55 64.7119 55z" />
    <glyph glyph-name="perthousand" unicode="&#x2030;" horiz-adv-x="1212" 
d="M323.48 767c92 0 156.597 -72 141.867 -165c-14.5723 -92 -102.976 -164 -193.976 -164s-156.755 71 -142.024 164c14.7295 93 102.133 165 194.133 165zM313.344 703c-56 0 -111.127 -45 -119.996 -101c-8.71191 -55 32.1611 -100 88.1611 -100s111.127 45 119.839 100
c8.86914 56 -32.0039 101 -88.0039 101zM720.48 767l36.1992 -24l-555.738 -756l-38.8828 26zM650.049 316c92 0 156.597 -72 141.867 -165c-14.5713 -92 -102.975 -164 -193.975 -164s-156.755 71 -142.025 164s102.133 165 194.133 165zM639.913 252
c-56 0 -111.128 -45 -119.997 -101c-8.71094 -55 32.1611 -100 88.1611 -100s111.128 45 119.839 100c8.86914 56 -32.0029 101 -88.0029 101zM1060.05 316c92 0 156.597 -72 141.867 -165c-14.5713 -92 -102.975 -164 -193.975 -164s-156.755 71 -142.025 164
s102.133 165 194.133 165zM1049.91 252c-56 0 -111.128 -45 -119.997 -101c-8.71094 -55 32.1611 -100 88.1611 -100c56.001 0 111.128 45 119.839 100c8.86914 56 -32.0029 101 -88.0029 101z" />
    <glyph glyph-name="plus" unicode="+" 
d="M347.875 498h78l-32.1514 -203h203l-12.3545 -78h-203l-32.1514 -203h-78l32.1514 203h-203l12.3545 78h203z" />
    <glyph glyph-name="plusminus" unicode="&#xb1;" 
d="M347.875 498h78l-24.2324 -153h203l-12.3545 -78h-203l-24.2324 -153h-78l24.2324 153h-203l12.3545 78h203zM66 0l12.3535 78h484l-12.3535 -78h-484z" />
    <glyph glyph-name="q" unicode="q" horiz-adv-x="577" 
d="M335.779 409c-93 0 -165.829 -81 -179.768 -169c-14.5713 -92 25.6494 -179 125.649 -179c103 0 170.146 83 185.192 178c14.8887 94 -32.0742 170 -131.074 170zM579.44 470l-116.254 -734h-80l52.2666 330h-2c-46.0771 -51 -110.512 -79 -173.512 -79
c-141 0 -208.103 113 -187.038 246c20.748 131 125.596 250 264.596 250c64 0 118.565 -28 149.33 -80h2l10.6113 67h80z" />
    <glyph glyph-name="question" unicode="?" horiz-adv-x="488" 
d="M376.95 328h81c-12.2051 -96 -93.4004 -173 -190.4 -173c-93 0 -151.755 71 -137.184 163c14.2549 90 81.2734 128 161.232 153c67.168 20 132.227 33 145.215 115c9.66113 61 -26.5283 104 -86.5283 104c-57 0 -104.969 -44 -113.681 -99
c-2.53418 -16 -3.06738 -32 -1.60156 -48h-83l4.39355 53c16.4727 104 112.084 171 211.084 171c102 0 167.646 -78 151.491 -180c-7.76074 -49 -33.9971 -101 -75.2236 -134c-39.9102 -31 -96.127 -45 -142.187 -58c-44.9004 -12 -82.2266 -33 -90.1455 -83
c-7.12793 -45 24.3291 -80 69.3291 -80c56 0 88.2861 46 96.2051 96zM257.68 99c31 0 52.041 -25 47.2891 -55c-4.91016 -31 -34.0273 -57 -65.0273 -57s-51.8828 26 -46.9727 57c4.75195 30 33.7109 55 64.7109 55z" />
    <glyph glyph-name="questiondown" unicode="&#xbf;" horiz-adv-x="488" 
d="M186.124 146h-81c12.2051 96 93.4004 173 190.4 173c93 0 151.755 -71 137.184 -163c-14.2549 -90 -81.2734 -128 -161.232 -153c-67.168 -20 -132.228 -33 -145.215 -115c-9.66113 -61 26.5283 -104 86.5283 -104c57 0 104.969 44 113.68 99
c2.53418 16 3.06836 32 1.60254 48h83l-4.39453 -53c-16.4717 -104 -112.083 -171 -211.083 -171c-102 0 -167.646 78 -151.491 180c7.76074 49 33.9971 101 75.2236 134c39.9102 31 96.127 45 142.187 58c44.9004 12 82.2266 33 90.1455 83
c7.12695 45 -24.3291 80 -69.3291 80c-56 0 -88.2861 -46 -96.2051 -96zM322.499 483c31 0 52.041 -25 47.1309 -56s-33.8691 -56 -64.8691 -56s-52.041 25 -47.1309 56s33.8691 56 64.8691 56z" />
    <glyph glyph-name="quotedbl" unicode="&#x22;" horiz-adv-x="457" 
d="M221.422 754h94l-69.9502 -328h-58zM380.422 754h94l-69.9502 -328h-58z" />
    <glyph glyph-name="quotedblbase" unicode="&#x201e;" horiz-adv-x="464" 
d="M172.422 110l69.8828 -26l-154.547 -256l-50.5156 22zM347.422 110l69.8828 -26l-154.547 -256l-50.5156 22z" />
    <glyph glyph-name="quotedblleft" unicode="&#x201c;" horiz-adv-x="457" 
d="M379.816 485l-69.7236 27l154.388 255l50.6738 -21zM211.816 485l-69.7236 27l154.388 255l50.6738 -21z" />
    <glyph glyph-name="quotedblright" unicode="&#x201d;" horiz-adv-x="457" 
d="M276.48 767l69.7236 -27l-154.388 -255l-50.6738 21zM444.48 767l69.7236 -27l-154.388 -255l-50.6738 21z" />
    <glyph glyph-name="quoteleft" unicode="&#x2018;" horiz-adv-x="289" 
d="M211.816 485l-69.7236 27l154.388 255l50.6738 -21z" />
    <glyph glyph-name="quoteright" unicode="&#x2019;" horiz-adv-x="289" 
d="M275.48 767l69.7236 -27l-154.388 -255l-50.6738 21z" />
    <glyph glyph-name="quotesinglbase" unicode="&#x201a;" horiz-adv-x="289" 
d="M172.422 110l69.8828 -26l-154.547 -256l-50.5156 22z" />
    <glyph glyph-name="quotesingle" unicode="'" horiz-adv-x="289" 
d="M217.422 754h94l-69.9502 -328h-58z" />
    <glyph glyph-name="r" unicode="r" horiz-adv-x="335" 
d="M226.44 470l-8.07715 -51h2c33.8594 37 62.1357 64 114.136 64c27 0 47.5752 -9 68.5156 -22l-49.5615 -73c-14.2578 11 -23.6738 21 -44.6738 21c-88 0 -109.897 -113 -119.559 -174l-37.2207 -235h-80l74.4404 470h80z" />
    <glyph glyph-name="registered" unicode="&#xae;" horiz-adv-x="800" 
d="M397.941 -13c-219 0 -364.6 173 -330.23 390s234.77 390 453.77 390s364.6 -173 330.23 -390s-234.77 -390 -453.77 -390zM407.444 47c179 0 355.124 146 384.267 330s-100.733 330 -279.733 330s-355.124 -146 -384.267 -330s100.733 -330 279.733 -330zM514.493 363
l97.7988 -197h-72l-96.7988 197h-72l-31.2012 -197h-60l67.6299 427h186c77 0 148.674 -21 134.103 -113c-13.3047 -84 -77.2139 -115 -153.531 -117zM380.996 423h72c53 0 144.416 -10 155.187 58c6.96875 44 -49.7637 52 -95.7637 52h-114z" />
    <glyph glyph-name="ring" unicode="&#x2da;" horiz-adv-x="350" 
d="M298.272 772c53 0 90.0312 -44 81.6367 -97c-8.55273 -54 -58.5215 -98 -112.521 -98s-91.0312 44 -82.4785 98c8.39453 53 59.3633 97 113.363 97zM290.354 722c-26 0 -51.3262 -21 -55.4443 -47s14.3975 -48 40.3975 -48s50.4844 22 54.6025 48
s-13.5557 47 -39.5557 47z" />
    <glyph glyph-name="s" unicode="s" horiz-adv-x="399" 
d="M395.72 396l-72.543 -35c-7.04004 25 -27.3975 48 -56.3975 48c-28 0 -61.4844 -22 -66.2363 -52c-6.81055 -43 44.6553 -59 96.0127 -82s100.131 -56 87.6182 -135c-14.0967 -89 -96.2324 -153 -183.232 -153c-79 0 -133.873 45 -147.152 119l75.751 30
c13.0312 -44 31.1211 -75 84.1211 -75c43 0 80.5938 29 87.4043 72c16.6299 105 -201.072 69 -177.631 217c12.5117 79 85.0645 133 161.064 133c54 0 97.9814 -38 111.221 -87z" />
    <glyph glyph-name="scaron" unicode="&#x161;" horiz-adv-x="399" 
d="M395.72 396l-72.543 -35c-7.04004 25 -27.3975 48 -56.3975 48c-28 0 -61.4844 -22 -66.2363 -52c-6.81055 -43 44.6553 -59 96.0127 -82s100.131 -56 87.6182 -135c-14.0967 -89 -96.2324 -153 -183.232 -153c-79 0 -133.873 45 -147.152 119l75.751 30
c13.0312 -44 31.1211 -75 84.1211 -75c43 0 80.5938 29 87.4043 72c16.6299 105 -201.072 69 -177.631 217c12.5117 79 85.0645 133 161.064 133c54 0 97.9814 -38 111.221 -87zM466.602 692l-177.064 -133l-136.936 133l65.1279 45l86.5371 -85l112.462 85z" />
    <glyph glyph-name="section" unicode="&#xa7;" horiz-adv-x="592" 
d="M359.67 402c-61 0 -117.761 -49 -127.422 -110s31.4199 -111 92.4199 -111s118.919 50 128.58 111s-32.5781 110 -93.5781 110zM105.634 4h81c-10.6123 -67 10.627 -116 83.627 -116c64 0 108.544 35 118.839 100c11.7207 74 -42.1123 94 -97.6279 116
c-33.624 15 -76.248 30 -103.289 55c-36.7725 33 -48.4873 79 -40.0928 132c11.5615 73 58.3818 135 130.816 163c-51.5654 28 -75.8047 77 -65.668 141c16.6309 105 116.242 172 216.242 172c52 0 108.199 -24 132.389 -67c19.4561 -35 21.3789 -86 15.5684 -129h-80
c7.87891 75 -15.1523 119 -81.1523 119c-60 0 -112.019 -38 -121.997 -101c-12.3535 -78 56.9541 -95 125.836 -121c67.8818 -26 134.18 -62 115.649 -179c-11.7207 -74 -61.1152 -127 -130.342 -160c55.0898 -31 75.6455 -78 64.876 -146
c-17.1055 -108 -108.242 -172 -213.242 -172c-128 0 -165.121 75 -151.432 193z" />
    <glyph glyph-name="semicolon" unicode=";" horiz-adv-x="308" 
d="M170.422 110l69.8828 -26l-153.547 -256l-50.5156 22zM255.499 483c31 0 52.041 -25 47.2891 -55c-4.90918 -31 -34.0273 -57 -65.0273 -57s-51.8818 26 -46.9727 57c4.75195 30 33.7109 55 64.7109 55z" />
    <glyph glyph-name="seven" unicode="7" 
d="M570.067 676h-412l12.3545 78h556l-627.48 -767l-59.8232 39z" />
    <glyph glyph-name="six" unicode="6" 
d="M484.48 767l55.5557 -47l-211.062 -234l1.68359 -2c21.1084 7 44.7422 11 67.7422 11c137 0 226.103 -113 204.562 -249c-22.8076 -144 -159.021 -259 -301.021 -259c-143 0 -241.628 116 -219.138 258c10.9287 69 51.2734 128 97.668 181zM314.295 65
c98 0 188.671 80 204.192 178s-51.4414 174 -148.441 174c-98 0 -188.037 -76 -203.559 -174s49.8076 -178 147.808 -178z" />
    <glyph glyph-name="slash" unicode="/" horiz-adv-x="570" 
d="M616.667 825l61.248 -30l-619.781 -952l-60.249 30z" />
    <glyph glyph-name="space" unicode=" " horiz-adv-x="308" 
 />
    <glyph glyph-name="sterling" unicode="&#xa3;" 
d="M250.447 268h-127l10.1367 64h100l-13.1406 37c-21.3379 61 -46.1025 113 -34.8574 184c19.4814 123 135.895 214 256.895 214c131 0 202.479 -98 183.205 -226l-85.4844 -22c12.6211 86 -9.3916 168 -108.392 168c-76 0 -148.187 -58 -160.54 -136
c-12.5127 -79 35.4004 -149 54.3145 -219h142l-10.1367 -64h-120c1.62402 -15 2.24805 -30 -0.12793 -45c-5.70117 -36 -27.1953 -77 -50.1055 -108l4.68359 -2c34.0996 -12 105.189 -43 138.189 -43c45 0 77.335 40 102.879 75l61.5059 -41
c-37.8193 -62 -100.372 -116 -172.372 -116c-41 0 -80.624 15 -117.407 29c-37.7822 14 -72.4062 29 -105.406 29c-41 0 -74.2764 -27 -99.6621 -61l-58.0312 44c40.2363 52 97.2051 96 161.363 97c23.2764 27 41.3447 59 46.7305 93c2.53418 16 3.22656 33 0.760742 49z
" />
    <glyph glyph-name="t" unicode="t" horiz-adv-x="240" 
d="M222.72 396l-62.7197 -396h-80l62.7197 396h-49l11.7207 74h49l26.7666 169h80l-26.7666 -169h84l-11.7207 -74h-84z" />
    <glyph glyph-name="thorn" unicode="&#xfe;" horiz-adv-x="577" 
d="M282.667 825l-66.8379 -422h2c47.2354 52 109.67 80 174.67 80c138 0 206.152 -119 185.562 -249c-21.2236 -134 -124.12 -247 -265.12 -247c-64 0 -118.565 28 -148.488 79h-2l-52.2666 -330h-80l172.48 1089h80zM365.779 409c-93 0 -165.829 -81 -179.768 -169
c-14.5713 -92 25.6494 -179 125.649 -179c103 0 170.146 83 185.192 178c14.8887 94 -32.0742 170 -131.074 170z" />
    <glyph glyph-name="three" unicode="3" 
d="M327.543 357l12.3545 78c80.4746 3 153.276 27 168.322 122c12.6709 80 -32.0928 132 -111.093 132c-75 0 -124.92 -50 -143.165 -121h-83c31.0059 120 116.519 199 240.519 199c121 0 201.013 -82 181.373 -206c-10.6113 -67 -57.2236 -134 -123.134 -165
c67.7734 -33 90.8945 -108 78.6992 -185c-20.9062 -132 -140.478 -224 -269.478 -224c-122 0 -208.854 83 -190.898 209h82c-8.19531 -77 48.252 -131 124.252 -131c84 0 157.771 68 170.916 151c15.2051 96 -45.1924 144 -137.668 141z" />
    <glyph glyph-name="threequarters" unicode="&#xbe;" horiz-adv-x="924" 
d="M803.798 125h60l-8.23535 -52h-60l-11.5625 -73h-60l11.5625 73h-245l368.146 405h-1h2zM743.798 125l30.0928 190h-2l-172.093 -190h144zM827.48 767l40.1992 -24l-558.738 -756l-40.1992 24zM301.201 519l8.23633 52c52 0 94.959 25 102.087 70
c7.60254 48 -30.2803 74 -68.2803 74c-44 0 -73.959 -25 -85.6113 -67h-60c19.4033 72 73.8477 119 154.848 119c79 0 131.239 -49 119.36 -124c-6.33496 -40 -35.6709 -80 -78.6797 -99c44.9902 -19 59.8633 -64 52.4189 -111c-13.4629 -85 -84.2236 -134 -173.224 -134
c-79 0 -136.08 50 -125.201 125h60c-7.28613 -46 26.4375 -73 75.4375 -73c53 0 95.7021 36 103.463 85c8.23535 52 -25.5381 85 -84.8545 83z" />
    <glyph glyph-name="threesuperior" unicode="&#xb3;" horiz-adv-x="369" 
d="M257.201 519l8.23633 52c52 0 94.959 25 102.087 70c7.60254 48 -30.2803 74 -68.2803 74c-44 0 -73.959 -25 -85.6113 -67h-60c19.4033 72 73.8477 119 154.848 119c79 0 131.239 -49 119.36 -124c-6.33496 -40 -35.6709 -80 -78.6797 -99
c44.9902 -19 59.8633 -64 52.4189 -111c-13.4629 -85 -84.2236 -134 -173.224 -134c-79 0 -136.08 50 -125.201 125h60c-7.28613 -46 26.4375 -73 75.4375 -73c53 0 95.7021 36 103.463 85c8.23535 52 -25.5381 85 -84.8545 83z" />
    <glyph glyph-name="tilde" unicode="&#x2dc;" horiz-adv-x="506" 
d="M220.13 588l-42.8232 39c29.3359 40 64.5127 79 114.513 79c30 0 55.2578 -11 77.3564 -23c23.2578 -11 42.3574 -23 60.3574 -23c28 0 48.1182 26 63.6025 48l40.9814 -38c-24.9688 -44 -69.8291 -81 -118.829 -81c-24 0 -48.2578 11 -71.3574 23
c-23.2578 11 -45.5156 22 -66.5156 22c-28 0 -43.8008 -24 -57.2852 -46z" />
    <glyph glyph-name="trademark" unicode="&#x2122;" horiz-adv-x="940" 
d="M1024.42 754l-66.6797 -421h-60l57.1768 361h-2l-201.177 -361h-39l-82.8232 361h-2l-57.1768 -361h-60l66.6797 421h101l73.0098 -303l172.99 303h100zM496.422 754l-9.50293 -60h-140l-57.1768 -361h-60l57.1768 361h-141l9.50293 60h341z" />
    <glyph glyph-name="two" unicode="2" 
d="M223.354 78h318l-12.3535 -78h-488l419.046 417c35.7021 36 63.1963 77 70.957 126c13.3037 84 -44.876 146 -126.876 146c-91 0 -160.612 -67 -176.55 -155h-84c23.9062 132 136.903 233 269.903 233c126 0 222.429 -92 201.681 -223
c-9.66211 -61 -36.0557 -114 -82.1836 -159z" />
    <glyph glyph-name="twosuperior" unicode="&#xb2;" horiz-adv-x="369" 
d="M202.859 359h197l-8.23535 -52h-317l268.596 250c23.4844 22 35.2861 46 40.0371 76c7.91895 50 -26.0127 82 -79.0127 82c-59 0 -98.543 -35 -106.938 -88h-60c14.5127 79 87.1738 140 173.174 140c87 0 145.289 -55 132.776 -134
c-5.06836 -32 -20.0869 -70 -47.0459 -95z" />
    <glyph glyph-name="u" unicode="u" horiz-adv-x="512" 
d="M224.44 470l-41.4961 -262c-12.5127 -79 -14.2832 -147 82.7168 -147s116.771 68 129.283 147l41.4961 262h80l-42.9219 -271c-19.7979 -125 -80.5771 -212 -219.577 -212s-172.221 87 -152.423 212l42.9219 271h80z" />
    <glyph glyph-name="uacute" unicode="&#xfa;" horiz-adv-x="512" 
d="M224.44 470l-41.4961 -262c-12.5127 -79 -14.2832 -147 82.7168 -147s116.771 68 129.283 147l41.4961 262h80l-42.9219 -271c-19.7979 -125 -80.5771 -212 -219.577 -212s-172.221 87 -152.423 212l42.9219 271h80zM391.838 744l77.9814 -38l-177.392 -154l-45.5654 28z
" />
    <glyph glyph-name="ucircumflex" unicode="&#xfb;" horiz-adv-x="512" 
d="M224.44 470l-41.4961 -262c-12.5127 -79 -14.2832 -147 82.7168 -147s116.771 68 129.283 147l41.4961 262h80l-42.9219 -271c-19.7979 -125 -80.5771 -212 -219.577 -212s-172.221 87 -152.423 212l42.9219 271h80zM194.664 604l177.064 133l136.936 -133l-65.127 -45
l-86.5381 85l-112.462 -85z" />
    <glyph glyph-name="udieresis" unicode="&#xfc;" horiz-adv-x="512" 
d="M224.44 470l-41.4961 -262c-12.5127 -79 -14.2832 -147 82.7168 -147s116.771 68 129.283 147l41.4961 262h80l-42.9219 -271c-19.7979 -125 -80.5771 -212 -219.577 -212s-172.221 87 -152.423 212l42.9219 271h80zM269.661 705c30 0 50.1982 -24 45.4473 -54
c-4.75195 -30 -32.5527 -54 -62.5527 -54s-50.1992 24 -45.4473 54c4.75098 30 32.5527 54 62.5527 54zM466.661 705c30 0 50.1982 -24 45.4473 -54c-4.75195 -30 -32.5527 -54 -62.5527 -54s-50.1992 24 -45.4473 54c4.75098 30 32.5527 54 62.5527 54z" />
    <glyph glyph-name="ugrave" unicode="&#xf9;" horiz-adv-x="512" 
d="M224.44 470l-41.4961 -262c-12.5127 -79 -14.2832 -147 82.7168 -147s116.771 68 129.283 147l41.4961 262h80l-42.9219 -271c-19.7979 -125 -80.5771 -212 -219.577 -212s-172.221 87 -152.423 212l42.9219 271h80zM254.819 706l90.0186 38l93.0244 -164l-54.4346 -28z
" />
    <glyph glyph-name="underscore" unicode="_" horiz-adv-x="500" 
d="M482.103 -113l-11.8789 -75h-500l11.8789 75h500z" />
    <glyph glyph-name="v" unicode="v" horiz-adv-x="463" 
d="M166.44 470l89.9512 -316l190.049 316h90l-309.351 -501l-151.649 501h91z" />
    <glyph glyph-name="w" unicode="w" horiz-adv-x="760" 
d="M168.44 470l88.6338 -318l202.068 354l90.9316 -354l190.366 318h91l-312.667 -503l-89.5654 350l-200.435 -350l-151.333 503h91z" />
    <glyph glyph-name="x" unicode="x" horiz-adv-x="498" 
d="M240.596 250l-136.155 220h98l97.6582 -160l148.342 160h100l-206.845 -220l155.404 -250h-97l-118.749 191l-180.251 -191h-100z" />
    <glyph glyph-name="y" unicode="y" horiz-adv-x="498" 
d="M220.969 44l-148.528 426h93l112.625 -337l205.375 337h91l-463.254 -734h-91z" />
    <glyph glyph-name="yacute" unicode="&#xfd;" horiz-adv-x="498" 
d="M220.969 44l-148.528 426h93l112.625 -337l205.375 337h91l-463.254 -734h-91zM402.838 744l77.9814 -38l-177.392 -154l-45.5654 28z" />
    <glyph glyph-name="ydieresis" unicode="&#xff;" horiz-adv-x="498" 
d="M220.969 44l-148.528 426h93l112.625 -337l205.375 337h91l-463.254 -734h-91zM262.661 705c30 0 50.1982 -24 45.4473 -54c-4.75195 -30 -32.5527 -54 -62.5527 -54s-50.1992 24 -45.4473 54c4.75098 30 32.5527 54 62.5527 54zM459.661 705
c30 0 50.1982 -24 45.4473 -54c-4.75195 -30 -32.5527 -54 -62.5527 -54s-50.1992 24 -45.4473 54c4.75098 30 32.5527 54 62.5527 54z" />
    <glyph glyph-name="yen" unicode="&#xa5;" 
d="M266 0l40.5459 256h-237l10.1367 64h237l-39.1611 100h-182l10.1367 64h145l-112.236 270h97l139.1 -334l244.9 334h97l-197.764 -270h145l-10.1367 -64h-182l-70.8389 -100h237l-10.1367 -64h-237l-40.5459 -256h-84z" />
    <glyph glyph-name="z" unicode="z" horiz-adv-x="519" 
d="M183.721 74h324l-11.7207 -74h-486l401.72 396h-276l11.7207 74h437z" />
    <glyph glyph-name="zcaron" unicode="&#x17e;" horiz-adv-x="519" 
d="M183.721 74h324l-11.7207 -74h-486l401.72 396h-276l11.7207 74h437zM526.602 692l-177.064 -133l-136.936 133l65.1279 45l86.5371 -85l112.462 85z" />
    <glyph glyph-name="zero" unicode="0" 
d="M429.48 767c191 0 232.621 -236 208.072 -391c-29.46 -186 -159.611 -389 -331.611 -389s-237.849 203 -208.389 389c24.5488 155 140.928 391 331.928 391zM417.127 689c-142 0 -221.261 -210 -236.208 -317c-14.7891 -106 -1.62402 -307 137.376 -307
s215.835 201 234.624 307c18.9473 107 6.20801 317 -135.792 317z" />
  </font>
</defs>
</svg>
