<?xml version="1.0" standalone="no"?><!DOCTYPE svg PUBLIC "-//W3C//DTD SVG 1.1//EN" "http://www.w3.org/Graphics/SVG/1.1/DTD/svg11.dtd"><svg width="100%" height="100%" viewBox="0 0 1049 805" version="1.1" xmlns="http://www.w3.org/2000/svg" xmlns:xlink="http://www.w3.org/1999/xlink" xml:space="preserve" style="fill-rule:evenodd;clip-rule:evenodd;stroke-linejoin:round;stroke-miterlimit:1.41421;"><clipPath id="tag1"><path d="M1.11022e-15,791.706l11.5076,-25.3755l-11.5076,-22.5676l0,47.9431Z"/></clipPath><g clip-path="url(#tag1)"><path d="M1.11022e-15,791.706l-19.4227,-9.92182l19.4227,-38.0213l19.4227,9.92182l-19.4227,38.0213Z" style="fill:url(#tag2);fill-rule:nonzero;"/></g><clipPath id="tag3"><path d="M1.11022e-15,619.252l0,124.51l11.5076,22.5676l529.538,-177.403l-65.7213,-128.999l-475.324,159.324Z"/></clipPath><g clip-path="url(#tag3)"><path d="M359.588,944.142l-416.791,-212.912l220.116,-430.893l416.791,212.912l-220.116,430.893Z" style="fill:url(#tag4);fill-rule:nonzero;"/></g><clipPath id="tag5"><path d="M180.442,395.817l359.033,191.941l-529.526,177.398l-9.9492,21.9386l0,18.2385l84.8677,0l624.843,-216.998l-493.747,-270.91l-35.522,78.3912Z"/></clipPath><g clip-path="url(#tag5)"><path d="M474.927,1047.94l-501.317,-256.091l242.355,-474.427l501.317,256.091l-242.355,474.427Z" style="fill:url(#tag6);fill-rule:nonzero;"/></g><clipPath id="tag7"><path d="M215.964,317.424l-65.6713,-128.895l496.204,271.272l61.7839,128.659l-492.317,-271.036Z"/></clipPath><g clip-path="url(#tag7)"><path d="M708.281,588.46l-604.533,-308.817l46.5441,-91.1134l604.533,308.817l-46.5441,91.1134Z" style="fill:url(#tag8);fill-rule:nonzero;"/></g><clipPath id="tag9"><path d="M180.442,395.818l-65.687,-128.899l35.5377,-78.3898l65.6713,128.895l-35.522,78.3941Z"/></clipPath><g clip-path="url(#tag9)"><path d="M180.442,395.818l-107.887,-55.1124l77.7373,-152.177l107.887,55.1124l-77.7373,152.177Z" style="fill:url(#tag10);fill-rule:nonzero;"/></g><clipPath id="tag11"><path d="M646.498,459.801l64.2544,128.509l-36.0496,78.5985l-64.2873,-128.473l36.0825,-78.6342Z"/></clipPath><g clip-path="url(#tag11)"><path d="M560.017,534.977l86.4808,-75.1766l114.686,131.931l-86.4808,75.1766l-114.686,-131.931Z" style="fill:url(#tag12);fill-rule:nonzero;"/></g><clipPath id="tag13"><path d="M82.3457,718.13l43.6441,87.2038l141.987,0l406.726,-138.425l-64.2873,-128.472l-528.069,179.693Z"/></clipPath><g clip-path="url(#tag13)"><path d="M505.122,999.064l-449.056,-229.46l208.299,-407.993l449.056,229.46l-208.299,407.993Z" style="fill:url(#tag14);fill-rule:nonzero;"/></g><clipPath id="tag15"><path d="M1.11022e-15,684.606l0,80.8574l72.3193,39.8697l172.835,0l-162.809,-87.2038l528.069,-179.693l36.0825,-78.6342l-646.498,224.804Z"/></clipPath><g clip-path="url(#tag15)"><path d="M391.012,968.18l-424.933,-217.133l258.709,-506.731l424.933,217.133l-258.709,506.731Z" style="fill:url(#tag16);fill-rule:nonzero;"/></g><clipPath id="tag17"><path d="M1.11022e-15,805.333l72.3193,0l-72.3193,-39.8697l0,39.8697Z"/></clipPath><g clip-path="url(#tag17)"><path d="M57.3562,834.641l-73.4999,-37.5572l16.1437,-31.6205l73.4999,37.5572l-16.1437,31.6205Z" style="fill:url(#tag18);fill-rule:nonzero;"/></g><clipPath id="tag19"><path d="M342.62,137.22c-37.7566,31.2573 -67.6957,66.5534 -91.3399,106.465c5.48142,3.31973 106.748,58.4442 128.836,70.3649c14.8244,-23.2339 30.7797,-48.8281 53.1029,-67.3897c115.83,-95.8706 288.002,-79.6994 383.933,36.0939c95.9092,115.792 79.7179,288.002 -36.0724,383.91c-115.76,95.8949 -287.996,79.6751 -383.877,-36.1339c-43.0279,-51.8676 -63.6297,-89.7758 -62.6961,-152.463c-27.1669,-14.8516 -121.376,-64.8292 -138.431,-73.8877c-14.131,110.129 15.4292,224.978 91.6487,317.059c27.8146,33.5862 59.851,61.661 94.7082,84.0956l449.379,0c13.705,-8.84548 27.0268,-18.5917 39.894,-29.25c176.15,-145.85 200.787,-407.861 54.8814,-583.989c-81.8882,-98.8901 -200.406,-150.014 -319.767,-150.019c-93.2285,-0.00428906 -186.963,31.1772 -264.201,95.1443Z"/></clipPath><g clip-path="url(#tag19)"><path d="M1197.73,540.593l-687.607,499.574l-490.98,-675.777l687.607,-499.574l490.98,675.777Z" style="fill:url(#tag20);fill-rule:nonzero;"/></g><rect x="0" y="0" width="1049.33" height="40" style="fill:#fff;"/><defs><linearGradient id="tag2" x1="0" y1="0" x2="1" y2="0" gradientUnits="userSpaceOnUse" gradientTransform="matrix(-107.918,-55.1286,55.1286,-107.918,14.7897,768.731)"><stop offset="0%" style="stop-color:#44c7f4;stop-opacity:1"/><stop offset="100%" style="stop-color:#006ca9;stop-opacity:1"/></linearGradient><linearGradient id="tag4" x1="0" y1="0" x2="1" y2="0" gradientUnits="userSpaceOnUse" gradientTransform="matrix(-452.426,-231.116,231.116,-452.426,469.648,728.697)"><stop offset="0%" style="stop-color:#44c7f4;stop-opacity:1"/><stop offset="100%" style="stop-color:#006ca9;stop-opacity:1"/></linearGradient><linearGradient id="tag6" x1="0" y1="0" x2="1" y2="0" gradientUnits="userSpaceOnUse" gradientTransform="matrix(-501.317,-256.091,256.091,-501.317,585.671,831.156)"><stop offset="0%" style="stop-color:#44c7f4;stop-opacity:1"/><stop offset="100%" style="stop-color:#006ca9;stop-opacity:1"/></linearGradient><linearGradient id="tag8" x1="0" y1="0" x2="1" y2="0" gradientUnits="userSpaceOnUse" gradientTransform="matrix(-604.531,-308.817,308.817,-604.531,731.553,542.905)"><stop offset="0%" style="stop-color:#44c7f4;stop-opacity:1"/><stop offset="100%" style="stop-color:#006ca9;stop-opacity:1"/></linearGradient><linearGradient id="tag10" x1="0" y1="0" x2="1" y2="0" gradientUnits="userSpaceOnUse" gradientTransform="matrix(-107.886,-55.1121,55.1121,-107.886,219.312,319.731)"><stop offset="0%" style="stop-color:#44c7f4;stop-opacity:1"/><stop offset="100%" style="stop-color:#006ca9;stop-opacity:1"/></linearGradient><linearGradient id="tag12" x1="0" y1="0" x2="1" y2="0" gradientUnits="userSpaceOnUse" gradientTransform="matrix(86.4806,-75.1764,75.1764,86.4806,617.361,600.944)"><stop offset="0%" style="stop-color:#ffe200;stop-opacity:1"/><stop offset="100%" style="stop-color:#fcb415;stop-opacity:1"/></linearGradient><linearGradient id="tag14" x1="0" y1="0" x2="1" y2="0" gradientUnits="userSpaceOnUse" gradientTransform="matrix(-449.055,-229.46,229.004,-448.549,603.052,807.254)"><stop offset="0%" style="stop-color:#fd0;stop-opacity:1"/><stop offset="71%" style="stop-color:#ec1b27;stop-opacity:1"/><stop offset="87%" style="stop-color:#eb008a;stop-opacity:1"/><stop offset="100%" style="stop-color:#eb008b;stop-opacity:1"/></linearGradient><linearGradient id="tag16" x1="0" y1="0" x2="1" y2="0" gradientUnits="userSpaceOnUse" gradientTransform="matrix(-501.35,-256.181,255.673,-500.785,535.415,729.18)"><stop offset="0%" style="stop-color:#fd0;stop-opacity:1"/><stop offset="65%" style="stop-color:#ec1d24;stop-opacity:1"/><stop offset="100%" style="stop-color:#eb008b;stop-opacity:1"/></linearGradient><linearGradient id="tag18" x1="0" y1="0" x2="1" y2="0" gradientUnits="userSpaceOnUse" gradientTransform="matrix(-604.348,-308.812,308.199,-603.667,491.007,1070.53)"><stop offset="0%" style="stop-color:#fd0;stop-opacity:1"/><stop offset="65%" style="stop-color:#ec1d24;stop-opacity:1"/><stop offset="81%" style="stop-color:#eb008b;stop-opacity:1"/><stop offset="100%" style="stop-color:#eb008b;stop-opacity:1"/></linearGradient><linearGradient id="tag20" x1="0" y1="0" x2="1" y2="0" gradientUnits="userSpaceOnUse" gradientTransform="matrix(-671.13,487.604,-487.604,-671.13,942.723,212.858)"><stop offset="0%" style="stop-color:#b2d235;stop-opacity:1"/><stop offset="96%" style="stop-color:#0da185;stop-opacity:1"/><stop offset="100%" style="stop-color:#009d8c;stop-opacity:1"/></linearGradient></defs></svg>