<?xml version="1.0" standalone="no"?><!DOCTYPE svg PUBLIC "-//W3C//DTD SVG 1.1//EN" "http://www.w3.org/Graphics/SVG/1.1/DTD/svg11.dtd"><svg width="100%" height="100%" viewBox="0 0 1095 763" version="1.1" xmlns="http://www.w3.org/2000/svg" xmlns:xlink="http://www.w3.org/1999/xlink" xml:space="preserve" style="fill-rule:evenodd;clip-rule:evenodd;stroke-linejoin:round;stroke-miterlimit:1.41421;"><clipPath id="tag1"><path d="M885.182,328.269l194.811,193.234l15.1475,-138.991l0,-26.2047l-192.353,-190.689l-17.6052,162.651Z"/></clipPath><g clip-path="url(#tag1)"><path d="M902.788,165.618l227.07,35.3209l-49.8641,320.564l-227.07,-35.3209l49.8641,-320.564Z" style="fill:url(#tag2);fill-rule:nonzero;"/></g><clipPath id="tag3"><path d="M302.146,763.453l453.803,0l324.044,-241.95l-194.811,-193.234l-583.037,435.184Z"/></clipPath><g clip-path="url(#tag3)"><path d="M382.014,250.001l722.724,112.421l-79.8681,513.452l-722.724,-112.421l79.8681,-513.452Z" style="fill:url(#tag4);fill-rule:nonzero;"/></g><clipPath id="tag5"><path d="M125.002,763.453l182.241,0l581.442,-433.993l17.608,-162.651l-781.291,596.644Z"/></clipPath><g clip-path="url(#tag5)"><path d="M234.076,62.2446l679.728,105.732l-109.074,701.208l-679.728,-105.732l109.074,-701.208Z" style="fill:url(#tag6);fill-rule:nonzero;"/></g><clipPath id="tag7"><path d="M0,711.663l0,51.7904l379.728,0l406.424,-306.365l-192.014,-193.337l-594.138,447.911Z"/></clipPath><g clip-path="url(#tag7)"><path d="M81.9566,183.987l728.98,113.528l-89.8105,578.243l-728.98,-113.528l89.8105,-578.243Z" style="fill:url(#tag8);fill-rule:nonzero;"/></g><clipPath id="tag9"><path d="M29.7118,324.28l756.441,132.808l-406.424,306.365l188.927,0l526.485,-402.384l0,-2.562l-1047.12,-196.949l-18.3043,162.723Z"/></clipPath><g clip-path="url(#tag9)"><path d="M48.0161,161.558l1052.65,163.936l-83.4422,537.241l-1052.65,-163.936l83.4422,-537.241Z" style="fill:url(#tag10);fill-rule:nonzero;"/></g><clipPath id="tag11"><path d="M0,0l0,113.157l48.0161,48.4006l1047.12,196.949l0,-2.20315l-189.213,-190.639l-880.329,-165.665l-25.5986,0Z"/></clipPath><g clip-path="url(#tag11)"><path d="M0.604562,-3.89246l1123.64,174.992l-29.1074,187.408l-1123.64,-174.992l29.1074,-187.408Z" style="fill:url(#tag12);fill-rule:nonzero;"/></g><clipPath id="tag13"><path d="M0,294.327l29.7118,29.9534l18.3043,-162.723l-48.0161,-48.4006l0,181.17Z"/></clipPath><g clip-path="url(#tag13)"><path d="M85.6029,138.976l-55.8911,185.304l-85.6029,-25.8194l55.8911,-185.304l85.6029,25.8194Z" style="fill:url(#tag14);fill-rule:nonzero;"/></g><clipPath id="tag15"><path d="M0,722.337c66.9022,0.446062 134.268,13.8565 198.213,41.1164l424.054,0c-55.612,-73.4173 -125.216,-138.198 -207.911,-190.21c-128.821,-80.9804 -272.358,-119.882 -414.356,-120.408l0,269.502Z"/></clipPath><g clip-path="url(#tag15)"><path d="M-127.838,630.19l216,-299.665l556.847,401.378l-216,299.665l-556.847,-401.378Z" style="fill:url(#tag16);fill-rule:nonzero;"/></g><defs><linearGradient id="tag2" x1="0" y1="0" x2="1" y2="0" gradientUnits="userSpaceOnUse" gradientTransform="matrix(227.071,35.3211,-35.3211,227.071,877.856,325.899)"><stop offset="0%" style="stop-color:#44c7f4;stop-opacity:1"/><stop offset="100%" style="stop-color:#006ca9;stop-opacity:1"/></linearGradient><linearGradient id="tag4" x1="0" y1="0" x2="1" y2="0" gradientUnits="userSpaceOnUse" gradientTransform="matrix(951.999,148.084,-148.084,951.999,82.2238,667.665)"><stop offset="0%" style="stop-color:#44c7f4;stop-opacity:1"/><stop offset="100%" style="stop-color:#006ca9;stop-opacity:1"/></linearGradient><linearGradient id="tag6" x1="0" y1="0" x2="1" y2="0" gradientUnits="userSpaceOnUse" gradientTransform="matrix(1054.86,164.084,-164.084,1054.86,-187.524,551.9)"><stop offset="0%" style="stop-color:#44c7f4;stop-opacity:1"/><stop offset="100%" style="stop-color:#006ca9;stop-opacity:1"/></linearGradient><linearGradient id="tag8" x1="0" y1="0" x2="1" y2="0" gradientUnits="userSpaceOnUse" gradientTransform="matrix(944.935,147.16,-146.585,943.783,-204.645,605.213)"><stop offset="0%" style="stop-color:#fd0;stop-opacity:1"/><stop offset="71%" style="stop-color:#ec1b27;stop-opacity:1"/><stop offset="87%" style="stop-color:#eb008a;stop-opacity:1"/><stop offset="100%" style="stop-color:#eb008b;stop-opacity:1"/></linearGradient><linearGradient id="tag10" x1="0" y1="0" x2="1" y2="0" gradientUnits="userSpaceOnUse" gradientTransform="matrix(1054.96,164.296,-163.653,1053.68,-36.5115,705.774)"><stop offset="0%" style="stop-color:#fd0;stop-opacity:1"/><stop offset="65%" style="stop-color:#ec1d24;stop-opacity:1"/><stop offset="100%" style="stop-color:#eb008b;stop-opacity:1"/></linearGradient><linearGradient id="tag12" x1="0" y1="0" x2="1" y2="0" gradientUnits="userSpaceOnUse" gradientTransform="matrix(1271.69,198.047,-197.273,1270.14,-158.88,64.5342)"><stop offset="0%" style="stop-color:#fd0;stop-opacity:1"/><stop offset="65%" style="stop-color:#ec1d24;stop-opacity:1"/><stop offset="81%" style="stop-color:#eb008b;stop-opacity:1"/><stop offset="100%" style="stop-color:#eb008b;stop-opacity:1"/></linearGradient><linearGradient id="tag14" x1="0" y1="0" x2="1" y2="0" gradientUnits="userSpaceOnUse" gradientTransform="matrix(-83.9939,278.477,-278.477,-83.9939,-15.0983,6.95297)"><stop offset="0%" style="stop-color:#ffe400;stop-opacity:1"/><stop offset="100%" style="stop-color:#fcb415;stop-opacity:1"/></linearGradient><linearGradient id="tag16" x1="0" y1="0" x2="1" y2="0" gradientUnits="userSpaceOnUse" gradientTransform="matrix(919.877,-1276.18,1276.18,919.877,-464.135,1877.28)"><stop offset="0%" style="stop-color:#b2d235;stop-opacity:1"/><stop offset="96%" style="stop-color:#0da185;stop-opacity:1"/><stop offset="100%" style="stop-color:#009d8c;stop-opacity:1"/></linearGradient></defs></svg>