<?xml version="1.0" standalone="no"?><!DOCTYPE svg PUBLIC "-//W3C//DTD SVG 1.1//EN" "http://www.w3.org/Graphics/SVG/1.1/DTD/svg11.dtd"><svg width="100%" height="100%" viewBox="0 0 635 613" version="1.1" xmlns="http://www.w3.org/2000/svg" xmlns:xlink="http://www.w3.org/1999/xlink" xml:space="preserve" style="fill-rule:evenodd;clip-rule:evenodd;stroke-linejoin:round;stroke-miterlimit:1.41421;"><clipPath id="tag1"><path d="M0.0171562,384.993l37.5822,73.6561l20.3559,-44.8865l-37.5507,-73.6418l-20.3873,44.8722Z"/></clipPath><g clip-path="url(#tag1)"><path d="M37.5994,458.649l-61.6544,-31.4953l44.4596,-87.0329l61.6544,31.4953l-44.4596,87.0329Z" style="fill:url(#tag2);fill-rule:nonzero;"/></g><clipPath id="tag3"><path d="M20.4045,340.121l37.5507,73.6418l302.522,-101.349l-37.5465,-73.6961l-302.526,101.403Z"/></clipPath><g clip-path="url(#tag3)"><path d="M256.812,515.346l-258.47,-132.036l125.751,-246.166l258.47,132.036l-125.751,246.166Z" style="fill:url(#tag4);fill-rule:nonzero;"/></g><clipPath id="tag5"><path d="M154.466,202.092l205.114,109.653l-302.516,101.348l-20.3545,44.885l420.125,-145.9l-282.076,-154.772l-20.293,44.7864Z"/></clipPath><g clip-path="url(#tag5)"><path d="M310.784,597.984l-286.402,-146.304l150.377,-294.374l286.402,146.304l-150.377,294.374Z" style="fill:url(#tag6);fill-rule:nonzero;"/></g><clipPath id="tag7"><path d="M174.759,157.306l281.26,154.841l-35.2976,-73.5031l-283.478,-154.975l37.5164,73.6375Z"/></clipPath><g clip-path="url(#tag7)"><path d="M456.019,312.147l-345.366,-176.426l26.5904,-52.0526l345.366,176.426l-26.5904,52.0526Z" style="fill:url(#tag8);fill-rule:nonzero;"/></g><clipPath id="tag9"><path d="M116.94,128.452l37.5264,73.6403l20.293,-44.7864l-37.5164,-73.6375l-20.303,44.7835Z"/></clipPath><g clip-path="url(#tag9)"><path d="M154.466,202.092l-61.6348,-31.4853l44.4114,-86.9385l61.6348,31.4853l-44.4114,86.9385Z" style="fill:url(#tag10);fill-rule:nonzero;"/></g><clipPath id="tag11"><path d="M400.108,283.567l36.7272,73.3959l20.5946,-44.9008l-36.7087,-73.4187l-20.6132,44.9236Z"/></clipPath><g clip-path="url(#tag11)"><path d="M371.316,281.591l49.4057,-42.9477l65.5197,75.3718l-49.4057,42.9477l-65.5197,-75.3718Z" style="fill:url(#tag12);fill-rule:nonzero;"/></g><clipPath id="tag13"><path d="M98.4254,386.226l36.7387,73.4087l301.671,-102.672l-36.7272,-73.3959l-301.683,102.659Z"/></clipPath><g clip-path="url(#tag13)"><path d="M332.846,560.647l-256.543,-131.089l126.109,-247.01l256.543,131.089l-126.109,247.01Z" style="fill:url(#tag14);fill-rule:nonzero;"/></g><clipPath id="tag15"><path d="M0,384.941l281.817,155.37l20.5618,-44.8407l-203.953,-109.244l301.683,-102.659l20.6132,-44.9236l-420.721,146.297Z"/></clipPath><g clip-path="url(#tag15)"><path d="M281.817,540.31l-286.419,-146.356l150.888,-295.543l286.419,146.356l-150.888,295.543Z" style="fill:url(#tag16);fill-rule:nonzero;"/></g><clipPath id="tag17"><path d="M36.7058,458.339l281.813,155.404l-36.7015,-73.433l-281.817,-155.37l36.7058,73.3987Z"/></clipPath><g clip-path="url(#tag17)"><path d="M318.519,613.743l-345.261,-176.423l26.7424,-52.3802l345.261,176.423l-26.7424,52.3802Z" style="fill:url(#tag18);fill-rule:nonzero;"/></g><clipPath id="tag19"><path d="M281.817,540.31l36.7015,73.433l20.5675,-44.8178l-36.7072,-73.4559l-20.5618,44.8407Z"/></clipPath><g clip-path="url(#tag19)"><path d="M252.118,567.249l50.2607,-71.7797l66.4004,46.4941l-50.2607,71.7797l-66.4004,-46.4941Z" style="fill:url(#tag20);fill-rule:nonzero;"/></g><clipPath id="tag21"><path d="M247.119,54.3567c-21.5711,17.8554 -38.6745,38.0211 -52.1836,60.8218c3.13245,1.8972 60.9862,33.3875 73.6046,40.2c8.46947,-13.2746 17.5837,-27.8961 30.3365,-38.4986c66.1745,-54.7728 164.536,-45.5341 219.341,20.6175c54.7913,66.1531 45.5413,164.536 -20.6089,219.327c-66.1331,54.7842 -164.533,45.517 -219.307,-20.6433c-24.582,-29.6317 -36.3512,-51.2886 -35.8194,-87.1009c-15.5193,-8.4852 -69.3413,-37.0361 -79.0846,-42.213c-8.07202,62.9163 8.81545,128.529 52.3594,181.136c83.3365,100.631 233.012,114.672 333.626,31.333c100.633,-83.3236 114.708,-233.009 31.353,-333.63c-46.7822,-56.4955 -114.491,-85.7026 -182.68,-85.7055c-53.2616,-0.00142969 -106.812,17.8125 -150.938,54.3567Z"/></clipPath><g clip-path="url(#tag21)"><path d="M740.132,290.988l-392.826,285.404l-284.989,-392.254l392.826,-285.404l284.989,392.254Z" style="fill:url(#tag22);fill-rule:nonzero;"/></g><defs><linearGradient id="tag2" x1="0" y1="0" x2="1" y2="0" gradientUnits="userSpaceOnUse" gradientTransform="matrix(-61.6539,-31.4951,31.4951,-61.6539,59.8305,415.134)"><stop offset="0%" style="stop-color:#44c7f4;stop-opacity:1"/><stop offset="100%" style="stop-color:#006ca9;stop-opacity:1"/></linearGradient><linearGradient id="tag4" x1="0" y1="0" x2="1" y2="0" gradientUnits="userSpaceOnUse" gradientTransform="matrix(-258.469,-132.035,132.035,-258.469,319.689,392.265)"><stop offset="0%" style="stop-color:#44c7f4;stop-opacity:1"/><stop offset="100%" style="stop-color:#006ca9;stop-opacity:1"/></linearGradient><linearGradient id="tag6" x1="0" y1="0" x2="1" y2="0" gradientUnits="userSpaceOnUse" gradientTransform="matrix(-286.401,-146.304,146.304,-286.401,385.974,450.8)"><stop offset="0%" style="stop-color:#44c7f4;stop-opacity:1"/><stop offset="100%" style="stop-color:#006ca9;stop-opacity:1"/></linearGradient><linearGradient id="tag8" x1="0" y1="0" x2="1" y2="0" gradientUnits="userSpaceOnUse" gradientTransform="matrix(-345.366,-176.425,176.425,-345.366,469.314,286.122)"><stop offset="0%" style="stop-color:#44c7f4;stop-opacity:1"/><stop offset="100%" style="stop-color:#006ca9;stop-opacity:1"/></linearGradient><linearGradient id="tag10" x1="0" y1="0" x2="1" y2="0" gradientUnits="userSpaceOnUse" gradientTransform="matrix(-61.634,-31.4849,31.4849,-61.634,176.673,158.624)"><stop offset="0%" style="stop-color:#44c7f4;stop-opacity:1"/><stop offset="100%" style="stop-color:#006ca9;stop-opacity:1"/></linearGradient><linearGradient id="tag12" x1="0" y1="0" x2="1" y2="0" gradientUnits="userSpaceOnUse" gradientTransform="matrix(49.4058,-42.9478,42.9478,49.4058,404.077,319.278)"><stop offset="0%" style="stop-color:#ffe200;stop-opacity:1"/><stop offset="100%" style="stop-color:#fcb415;stop-opacity:1"/></linearGradient><linearGradient id="tag14" x1="0" y1="0" x2="1" y2="0" gradientUnits="userSpaceOnUse" gradientTransform="matrix(-256.543,-131.089,130.829,-256.254,395.902,437.143)"><stop offset="0%" style="stop-color:#fd0;stop-opacity:1"/><stop offset="71%" style="stop-color:#ec1b27;stop-opacity:1"/><stop offset="87%" style="stop-color:#eb008a;stop-opacity:1"/><stop offset="100%" style="stop-color:#eb008b;stop-opacity:1"/></linearGradient><linearGradient id="tag16" x1="0" y1="0" x2="1" y2="0" gradientUnits="userSpaceOnUse" gradientTransform="matrix(-286.42,-146.356,146.066,-286.097,357.263,392.54)"><stop offset="0%" style="stop-color:#fd0;stop-opacity:1"/><stop offset="65%" style="stop-color:#ec1d24;stop-opacity:1"/><stop offset="100%" style="stop-color:#eb008b;stop-opacity:1"/></linearGradient><linearGradient id="tag18" x1="0" y1="0" x2="1" y2="0" gradientUnits="userSpaceOnUse" gradientTransform="matrix(-345.261,-176.423,176.073,-344.872,331.891,587.554)"><stop offset="0%" style="stop-color:#fd0;stop-opacity:1"/><stop offset="65%" style="stop-color:#ec1d24;stop-opacity:1"/><stop offset="81%" style="stop-color:#eb008b;stop-opacity:1"/><stop offset="100%" style="stop-color:#eb008b;stop-opacity:1"/></linearGradient><linearGradient id="tag20" x1="0" y1="0" x2="1" y2="0" gradientUnits="userSpaceOnUse" gradientTransform="matrix(50.2608,-71.7798,71.7798,50.2608,285.318,590.496)"><stop offset="0%" style="stop-color:#ffe400;stop-opacity:1"/><stop offset="100%" style="stop-color:#fcb415;stop-opacity:1"/></linearGradient><linearGradient id="tag22" x1="0" y1="0" x2="1" y2="0" gradientUnits="userSpaceOnUse" gradientTransform="matrix(-383.412,278.565,-278.565,-383.412,589.956,97.569)"><stop offset="0%" style="stop-color:#b2d235;stop-opacity:1"/><stop offset="96%" style="stop-color:#0da185;stop-opacity:1"/><stop offset="100%" style="stop-color:#009d8c;stop-opacity:1"/></linearGradient></defs></svg>