<?xml version="1.0" standalone="no"?><!DOCTYPE svg PUBLIC "-//W3C//DTD SVG 1.1//EN" "http://www.w3.org/Graphics/SVG/1.1/DTD/svg11.dtd"><svg width="100%" height="100%" viewBox="0 0 1105 805" version="1.1" xmlns="http://www.w3.org/2000/svg" xmlns:xlink="http://www.w3.org/1999/xlink" xml:space="preserve" style="fill-rule:evenodd;clip-rule:evenodd;stroke-linejoin:round;stroke-miterlimit:1.41421;"><rect x="0" y="0" width="1049.33" height="40" style="fill:#fff;"/><clipPath id="tag1"><path d="M157.197,805.333l495.986,0l-442.171,-195.58l-53.8149,195.58Z"/></clipPath><g clip-path="url(#tag1)"><path d="M534.373,488.497l118.809,316.836l-434.841,163.059l-118.809,-316.836l434.841,-163.059Z" style="fill:url(#tag2);fill-rule:nonzero;"/></g><clipPath id="tag3"><path d="M141.713,805.333l138.026,0l-68.1418,-192.547l435.318,192.547l238.812,0l-871.893,-374.249l127.878,374.249Z"/></clipPath><g clip-path="url(#tag3)"><path d="M655.204,190.579l230.525,614.754l-652.293,244.601l-230.525,-614.754l652.293,-244.601Z" style="fill:url(#tag4);fill-rule:nonzero;"/></g><clipPath id="tag5"><path d="M1.11022e-15,484.469l0,306.842l4.81519,14.0224l137.637,0l-126.819,-372.871l-15.6336,52.0063Z"/></clipPath><g clip-path="url(#tag5)"><path d="M15.6336,432.462l138.219,368.596l-132.069,49.5242l-138.219,-368.596l132.069,-49.5242Z" style="fill:url(#tag6);fill-rule:nonzero;"/></g><clipPath id="tag7"><path d="M12.5941,430.007l-12.5941,44.4576l0,152.774l76.4811,-32.4139l61.7039,-218.07l-125.591,53.253Z"/></clipPath><g clip-path="url(#tag7)"><path d="M132.065,630.425l-135.749,-3.27492l6.11976,-253.67l135.749,3.27492l-6.11976,253.67Z" style="fill:url(#tag8);fill-rule:nonzero;"/></g><clipPath id="tag9"><path d="M76.4811,594.825l482.078,210.509l364.434,0l21.634,-76.4797l-806.442,-352.099l-61.7039,218.07Z"/></clipPath><g clip-path="url(#tag9)"><path d="M729.403,154.881l237.696,633.9l-716.993,269.074l-237.696,-633.9l716.993,-269.074Z" style="fill:url(#tag10);fill-rule:nonzero;"/></g><clipPath id="tag11"><path d="M670.255,344.509l162.671,460.824l137.211,0l-174.478,-514.014l-125.405,53.1901ZM1.11022e-15,627.239l0,41.9356l317.558,136.159l241.001,0l-482.078,-210.509l-76.4811,32.4139Z"/></clipPath><g clip-path="url(#tag11)"><path d="M795.66,291.319l190.488,508.006l-821.713,308.374l-190.488,-508.006l821.713,-308.374Z" style="fill:url(#tag12);fill-rule:nonzero;"/></g><clipPath id="tag13"><path d="M795.66,291.319l174.478,514.014l135.779,0l-248.431,-732.116l-61.8254,218.102Z"/></clipPath><g clip-path="url(#tag13)"><path d="M857.485,73.2175l271.305,723.532l-141.903,53.2536l-271.305,-723.532l141.903,-53.2536Z" style="fill:url(#tag14);fill-rule:nonzero;"/></g><clipPath id="tag15"><path d="M732.107,126.348l-61.8526,218.162l125.405,-53.1901l61.8254,-218.102l-125.378,53.13Z"/></clipPath><g clip-path="url(#tag15)"><path d="M906.383,291.65l-236.128,52.8588l-48.8977,-218.433l236.128,-52.8588l48.8977,218.433Z" style="fill:url(#tag16);fill-rule:nonzero;"/></g><clipPath id="tag17"><path d="M1.11022e-15,263.469c4.6422,0.0743438 9.29297,0.223031 13.9638,0.446063c236.868,11.3531 420.327,213.408 408.909,450.322c-1.60411,33.9651 -4.36484,63.8313 -9.59177,91.0968l224.808,0c4.5221,-26.2448 7.49585,-53.0771 8.81402,-80.3799c17.3278,-360.384 -261.84,-667.63 -622.19,-684.916c-8.24787,-0.397453 -16.5243,-0.6405 -24.7136,-0.729141l0,224.161Z"/></clipPath><g clip-path="url(#tag17)"><path d="M2.76954,14.5533l716.41,80.1508l-82.3027,735.645l-716.41,-80.1508l82.3027,-735.645Z" style="fill:url(#tag18);fill-rule:nonzero;"/></g><defs><linearGradient id="tag2" x1="0" y1="0" x2="1" y2="0" gradientUnits="userSpaceOnUse" gradientTransform="matrix(281.396,750.417,-750.417,281.396,442.865,522.811)"><stop offset="0%" style="stop-color:#44c7f4;stop-opacity:1"/><stop offset="100%" style="stop-color:#006ca9;stop-opacity:1"/></linearGradient><linearGradient id="tag4" x1="0" y1="0" x2="1" y2="0" gradientUnits="userSpaceOnUse" gradientTransform="matrix(311.817,831.542,-831.542,311.817,416.642,280.036)"><stop offset="0%" style="stop-color:#44c7f4;stop-opacity:1"/><stop offset="100%" style="stop-color:#006ca9;stop-opacity:1"/></linearGradient><linearGradient id="tag6" x1="0" y1="0" x2="1" y2="0" gradientUnits="userSpaceOnUse" gradientTransform="matrix(376.018,1002.75,-1002.75,376.018,-59.9059,460.787)"><stop offset="0%" style="stop-color:#44c7f4;stop-opacity:1"/><stop offset="100%" style="stop-color:#006ca9;stop-opacity:1"/></linearGradient><linearGradient id="tag8" x1="0" y1="0" x2="1" y2="0" gradientUnits="userSpaceOnUse" gradientTransform="matrix(-180.717,-4.35978,4.35978,-180.717,134.86,514.599)"><stop offset="0%" style="stop-color:#ffe200;stop-opacity:1"/><stop offset="100%" style="stop-color:#fcb415;stop-opacity:1"/></linearGradient><linearGradient id="tag10" x1="0" y1="0" x2="1" y2="0" gradientUnits="userSpaceOnUse" gradientTransform="matrix(279.313,744.887,-743.85,279.153,370.905,289.417)"><stop offset="0%" style="stop-color:#fd0;stop-opacity:1"/><stop offset="71%" style="stop-color:#ec1b27;stop-opacity:1"/><stop offset="87%" style="stop-color:#eb008a;stop-opacity:1"/><stop offset="100%" style="stop-color:#eb008b;stop-opacity:1"/></linearGradient><linearGradient id="tag12" x1="0" y1="0" x2="1" y2="0" gradientUnits="userSpaceOnUse" gradientTransform="matrix(311.845,831.646,-830.488,311.667,366.709,452.295)"><stop offset="0%" style="stop-color:#fd0;stop-opacity:1"/><stop offset="65%" style="stop-color:#ec1d24;stop-opacity:1"/><stop offset="100%" style="stop-color:#eb008b;stop-opacity:1"/></linearGradient><linearGradient id="tag14" x1="0" y1="0" x2="1" y2="0" gradientUnits="userSpaceOnUse" gradientTransform="matrix(375.912,1002.5,-1001.11,375.697,781.433,101.757)"><stop offset="0%" style="stop-color:#fd0;stop-opacity:1"/><stop offset="65%" style="stop-color:#ec1d24;stop-opacity:1"/><stop offset="81%" style="stop-color:#eb008b;stop-opacity:1"/><stop offset="100%" style="stop-color:#eb008b;stop-opacity:1"/></linearGradient><linearGradient id="tag16" x1="0" y1="0" x2="1" y2="0" gradientUnits="userSpaceOnUse" gradientTransform="matrix(-236.127,52.8586,-52.8586,-236.127,881.933,182.434)"><stop offset="0%" style="stop-color:#ffe400;stop-opacity:1"/><stop offset="100%" style="stop-color:#fcb415;stop-opacity:1"/></linearGradient><linearGradient id="tag18" x1="0" y1="0" x2="1" y2="0" gradientUnits="userSpaceOnUse" gradientTransform="matrix(1300.58,145.507,-145.507,1300.58,-656.967,620.83)"><stop offset="0%" style="stop-color:#b2d235;stop-opacity:1"/><stop offset="96%" style="stop-color:#0da185;stop-opacity:1"/><stop offset="100%" style="stop-color:#009d8c;stop-opacity:1"/></linearGradient></defs></svg>