<?xml version="1.0" standalone="no"?><!DOCTYPE svg PUBLIC "-//W3C//DTD SVG 1.1//EN" "http://www.w3.org/Graphics/SVG/1.1/DTD/svg11.dtd"><svg width="100%" height="100%" viewBox="0 0 1248 613" version="1.1" xmlns="http://www.w3.org/2000/svg" xmlns:xlink="http://www.w3.org/1999/xlink" xml:space="preserve" style="fill-rule:evenodd;clip-rule:evenodd;stroke-linejoin:round;stroke-miterlimit:1.41421;"><clipPath id="tag1"><path d="M37.5994,458.651l-37.5822,-73.6575l20.3873,-44.8722l37.5507,73.6418l-20.3559,44.8879Z"/></clipPath><g clip-path="url(#tag1)"><path d="M37.5994,458.651l-61.655,-31.4956l44.4602,-87.034l61.655,31.4956l-44.4602,87.034Z" style="fill:url(#tag2);fill-rule:nonzero;"/></g><clipPath id="tag3"><path d="M57.9552,413.763l-37.5507,-73.6418l302.526,-101.403l37.5465,73.6961l-302.522,101.349Z"/></clipPath><g clip-path="url(#tag3)"><path d="M256.812,515.346l-258.47,-132.036l125.751,-246.166l258.47,132.036l-125.751,246.166Z" style="fill:url(#tag4);fill-rule:nonzero;"/></g><clipPath id="tag5"><path d="M174.759,157.306l282.076,154.771l-420.125,145.902l20.3545,-44.8865l302.516,-101.346l-205.114,-109.654l20.293,-44.7864Z"/></clipPath><g clip-path="url(#tag5)"><path d="M310.783,597.985l-286.401,-146.304l150.378,-294.375l286.401,146.304l-150.378,294.375Z" style="fill:url(#tag6);fill-rule:nonzero;"/></g><clipPath id="tag7"><path d="M174.759,157.306l-37.5164,-73.6375l283.478,154.977l35.2976,73.5017l-281.26,-154.841Z"/></clipPath><g clip-path="url(#tag7)"><path d="M456.019,312.147l-345.366,-176.426l26.5904,-52.0526l345.366,176.426l-26.5904,52.0526Z" style="fill:url(#tag8);fill-rule:nonzero;"/></g><clipPath id="tag9"><path d="M154.466,202.092l-37.5264,-73.6403l20.303,-44.7835l37.5164,73.6375l-20.293,44.7864Z"/></clipPath><g clip-path="url(#tag9)"><path d="M154.466,202.092l-61.6348,-31.4853l44.4114,-86.9385l61.6348,31.4853l-44.4114,86.9385Z" style="fill:url(#tag10);fill-rule:nonzero;"/></g><clipPath id="tag11"><path d="M420.721,238.645l36.7087,73.4159l-20.5946,44.9036l-36.7272,-73.3959l20.6132,-44.9236Z"/></clipPath><g clip-path="url(#tag11)"><path d="M371.316,281.593l49.4057,-42.9477l65.5197,75.3718l-49.4057,42.9477l-65.5197,-75.3718Z" style="fill:url(#tag12);fill-rule:nonzero;"/></g><clipPath id="tag13"><path d="M400.108,283.569l36.7272,73.3959l-301.671,102.67l-36.7387,-73.4087l301.683,-102.657Z"/></clipPath><g clip-path="url(#tag13)"><path d="M332.846,560.647l-256.544,-131.09l126.109,-247.008l256.544,131.09l-126.109,247.008Z" style="fill:url(#tag14);fill-rule:nonzero;"/></g><clipPath id="tag15"><path d="M281.817,540.31l-281.817,-155.37l420.721,-146.296l-20.6132,44.9236l-301.683,102.657l203.953,109.242l-20.5618,44.8421Z"/></clipPath><g clip-path="url(#tag15)"><path d="M281.817,540.31l-286.419,-146.356l150.888,-295.542l286.419,146.356l-150.888,295.542Z" style="fill:url(#tag16);fill-rule:nonzero;"/></g><clipPath id="tag17"><path d="M281.817,540.31l36.7015,73.433l-281.813,-155.403l-36.7058,-73.4002l281.817,155.37Z"/></clipPath><g clip-path="url(#tag17)"><path d="M318.519,613.743l-345.261,-176.423l26.7424,-52.3802l345.261,176.423l-26.7424,52.3802Z" style="fill:url(#tag18);fill-rule:nonzero;"/></g><clipPath id="tag19"><path d="M302.379,495.468l36.7087,73.4573l-20.5689,44.8178l-36.7015,-73.433l20.5618,-44.8421Z"/></clipPath><g clip-path="url(#tag19)"><path d="M252.118,567.249l50.2613,-71.7806l66.4011,46.4946l-50.2613,71.7806l-66.4011,-46.4946Z" style="fill:url(#tag20);fill-rule:nonzero;"/></g><clipPath id="tag21"><path d="M247.119,54.3553c-21.5697,17.8568 -38.6745,38.0211 -52.1836,60.8232c3.13245,1.8972 60.9862,33.3875 73.6046,40.2c8.46947,-13.2732 17.5852,-27.8961 30.338,-38.5001c66.1731,-54.7699 164.534,-45.5313 219.34,20.619c54.7913,66.1531 45.5413,164.534 -20.6104,219.327c-66.1316,54.7842 -164.531,45.5184 -219.307,-20.6433c-24.5806,-29.6331 -36.3512,-51.2886 -35.8165,-87.1009c-15.5207,-8.4852 -69.3413,-37.0361 -79.086,-42.213c-8.07202,62.9163 8.81545,128.529 52.3594,181.134c83.3365,100.633 233.013,114.672 333.626,31.3345c100.634,-83.3222 114.708,-233.009 31.353,-333.63c-46.7822,-56.4955 -114.491,-85.7026 -182.681,-85.7055c-53.2601,-0.00285937 -106.811,17.8125 -150.936,54.3553Z"/></clipPath><g clip-path="url(#tag21)"><path d="M740.132,290.988l-392.826,285.404l-284.989,-392.254l392.826,-285.404l284.989,392.254Z" style="fill:url(#tag22);fill-rule:nonzero;"/></g><path d="M1007.4,222.287c0,6.35496 3.41123,10.8113 9.00846,10.8113c8.24787,0 13.745,-11.376 13.745,-20.5804c0,-4.73655 -2.08163,-10.6211 -8.81259,-10.6211c-8.82546,0 -13.9409,11.7649 -13.9409,20.3902M1041.63,212.518c0,15.6494 -11,29.1199 -26.7452,29.1199c-11.6677,0 -18.8733,-8.06058 -18.8733,-19.0606c0,-15.6508 10.9071,-29.2114 26.6479,-29.2114c12.4226,0 18.9705,8.91124 18.9705,19.1521" style="fill:#7c7776;fill-rule:nonzero;"/><path d="M1042.59,233.864l18.3057,-20.0142c3.88446,-4.17183 6.72668,-6.73526 10.5254,-10.1536l0.0943594,-0.283078l-21.5268,0l1.80284,-9.00846l34.7114,0l-1.32961,7.11555l-17.924,19.6325c-4.17898,4.4592 -6.92684,7.10841 -10.5296,10.2451l0,0.188719l23.4254,0l-1.79998,9.00846l-36.9889,0l1.23382,-6.73097Z" style="fill:#7c7776;fill-rule:nonzero;"/><path d="M1104.99,185.019l-1.89862,10.0521l11.5776,0l-0.670523,3.51274l-11.6663,0l-4.93242,26.362c-0.564727,3.03809 -0.949312,5.30843 -0.949312,8.15351c0,3.04237 1.5169,4.84235 4.55212,4.84235c1.52119,0 2.75215,-0.191578 3.70146,-0.473227l0.378867,3.41266c-1.23525,0.474656 -3.03809,0.757734 -4.93099,0.757734c-6.06902,0 -8.15923,-4.26619 -8.15923,-8.25645c0,-2.745 0.381727,-5.49715 1.04367,-8.6253l5.02964,-26.1733l-6.92684,0l0.664805,-3.51274l7.01977,0l1.51118,-8.34652l4.65506,-1.70562Z" style="fill:#7c7776;fill-rule:nonzero;"/><path d="M1116.09,240.595l5.8803,-30.7283c0.940734,-5.40565 1.70276,-10.4367 2.27463,-14.7958l3.88446,0c-0.468938,3.22252 -0.850664,6.44932 -1.51404,10.248l0.287367,0c2.84222,-6.36211 7.58163,-11.2902 13.5577,-11.2902c0.666234,0 1.61412,0.0929297 2.08448,0.188719l-0.850664,4.36627c-0.477516,-0.194438 -1.14089,-0.194438 -2.08163,-0.194438c-5.69587,0 -12.9973,8.53666 -15.0861,20.11l-4.17612,22.0958l-4.26047,0Z" style="fill:#7c7776;fill-rule:nonzero;"/><path d="M1177.64,198.584c-1.1366,-0.478945 -3.0338,-0.863531 -6.54225,-0.863531c-13.7493,0 -25.4198,13.2847 -25.5142,28.6524c0,5.49572 1.71277,11.5676 9.20576,11.5676c8.14922,0 17.4493,-10.9099 19.9098,-23.6156l2.94087,-15.7409ZM1171.86,240.595c-0.0943594,-2.84508 0.473227,-7.87615 1.23382,-13.4662l-0.190148,0c-5.31701,10.6211 -11.9508,14.5085 -19.0663,14.5085c-7.97051,0 -12.6127,-6.45218 -12.6127,-14.5085c0,-16.2198 12.5183,-33.1016 30.7283,-33.1016c3.70575,0 7.77464,0.564727 10.5282,1.32532l-4.55212,23.7114c-1.70562,9.19718 -2.18456,16.8818 -1.99155,21.5311l-4.07747,0Z" style="fill:#7c7776;fill-rule:nonzero;"/><path d="M1202.11,185.771c-1.99584,0 -3.1353,-1.80284 -3.1353,-3.79439c0.100078,-2.08163 1.52405,-3.79153 3.51274,-3.79153c2.18599,0 3.41695,1.70991 3.41695,3.79153c-0.194438,1.99155 -1.42254,3.79439 -3.70146,3.79439l-0.0929297,0ZM1189.12,240.595l8.71966,-45.5241l4.27334,0l-8.72681,45.5241l-4.26619,0Z" style="fill:#7c7776;fill-rule:nonzero;"/><path d="M1208.66,240.595l6.25345,-33.2917c0.952172,-4.6422 1.52405,-8.62959 1.99584,-12.2324l3.97882,0l-1.42254,9.7662l0.198727,0c3.97596,-6.63661 10.421,-10.8084 17.5408,-10.8084c4.07604,0 11.3817,2.17884 11.3817,12.7056c0,2.08877 -0.377438,4.64934 -0.859242,7.20991l-5.01534,26.6508l-4.27191,0l5.11542,-27.0311c0.285937,-1.89291 0.666234,-4.17469 0.666234,-6.2606c0,-5.40565 -2.18313,-9.48026 -8.72252,-9.48026c-6.45218,0 -16.124,7.39434 -18.3086,19.438l-4.26619,23.3339l-4.26476,0Z" style="fill:#7c7776;fill-rule:nonzero;"/><defs><linearGradient id="tag2" x1="0" y1="0" x2="1" y2="0" gradientUnits="userSpaceOnUse" gradientTransform="matrix(-61.6539,-31.4951,31.4951,-61.6539,59.8305,415.134)"><stop offset="0%" style="stop-color:#44c7f4;stop-opacity:1"/><stop offset="100%" style="stop-color:#006ca9;stop-opacity:1"/></linearGradient><linearGradient id="tag4" x1="0" y1="0" x2="1" y2="0" gradientUnits="userSpaceOnUse" gradientTransform="matrix(-258.469,-132.035,132.035,-258.469,319.687,392.265)"><stop offset="0%" style="stop-color:#44c7f4;stop-opacity:1"/><stop offset="100%" style="stop-color:#006ca9;stop-opacity:1"/></linearGradient><linearGradient id="tag6" x1="0" y1="0" x2="1" y2="0" gradientUnits="userSpaceOnUse" gradientTransform="matrix(-286.4,-146.304,146.304,-286.4,385.972,450.798)"><stop offset="0%" style="stop-color:#44c7f4;stop-opacity:1"/><stop offset="100%" style="stop-color:#006ca9;stop-opacity:1"/></linearGradient><linearGradient id="tag8" x1="0" y1="0" x2="1" y2="0" gradientUnits="userSpaceOnUse" gradientTransform="matrix(-345.366,-176.425,176.425,-345.366,469.315,286.122)"><stop offset="0%" style="stop-color:#44c7f4;stop-opacity:1"/><stop offset="100%" style="stop-color:#006ca9;stop-opacity:1"/></linearGradient><linearGradient id="tag10" x1="0" y1="0" x2="1" y2="0" gradientUnits="userSpaceOnUse" gradientTransform="matrix(-61.6352,-31.4855,31.4855,-61.6352,176.674,158.625)"><stop offset="0%" style="stop-color:#44c7f4;stop-opacity:1"/><stop offset="100%" style="stop-color:#006ca9;stop-opacity:1"/></linearGradient><linearGradient id="tag12" x1="0" y1="0" x2="1" y2="0" gradientUnits="userSpaceOnUse" gradientTransform="matrix(49.4058,-42.9478,42.9478,49.4058,404.076,319.278)"><stop offset="0%" style="stop-color:#ffe200;stop-opacity:1"/><stop offset="100%" style="stop-color:#fcb415;stop-opacity:1"/></linearGradient><linearGradient id="tag14" x1="0" y1="0" x2="1" y2="0" gradientUnits="userSpaceOnUse" gradientTransform="matrix(-256.543,-131.089,130.829,-256.254,395.902,437.143)"><stop offset="0%" style="stop-color:#fd0;stop-opacity:1"/><stop offset="71%" style="stop-color:#ec1b27;stop-opacity:1"/><stop offset="87%" style="stop-color:#eb008a;stop-opacity:1"/><stop offset="100%" style="stop-color:#eb008b;stop-opacity:1"/></linearGradient><linearGradient id="tag16" x1="0" y1="0" x2="1" y2="0" gradientUnits="userSpaceOnUse" gradientTransform="matrix(-286.419,-146.355,146.065,-286.096,357.261,392.541)"><stop offset="0%" style="stop-color:#fd0;stop-opacity:1"/><stop offset="65%" style="stop-color:#ec1d24;stop-opacity:1"/><stop offset="100%" style="stop-color:#eb008b;stop-opacity:1"/></linearGradient><linearGradient id="tag18" x1="0" y1="0" x2="1" y2="0" gradientUnits="userSpaceOnUse" gradientTransform="matrix(-345.261,-176.423,176.073,-344.872,331.893,587.554)"><stop offset="0%" style="stop-color:#fd0;stop-opacity:1"/><stop offset="65%" style="stop-color:#ec1d24;stop-opacity:1"/><stop offset="81%" style="stop-color:#eb008b;stop-opacity:1"/><stop offset="100%" style="stop-color:#eb008b;stop-opacity:1"/></linearGradient><linearGradient id="tag20" x1="0" y1="0" x2="1" y2="0" gradientUnits="userSpaceOnUse" gradientTransform="matrix(50.2612,-71.7804,71.7804,50.2612,285.318,590.496)"><stop offset="0%" style="stop-color:#ffe400;stop-opacity:1"/><stop offset="100%" style="stop-color:#fcb415;stop-opacity:1"/></linearGradient><linearGradient id="tag22" x1="0" y1="0" x2="1" y2="0" gradientUnits="userSpaceOnUse" gradientTransform="matrix(-383.412,278.565,-278.565,-383.412,589.954,97.5676)"><stop offset="0%" style="stop-color:#b2d235;stop-opacity:1"/><stop offset="96%" style="stop-color:#0da185;stop-opacity:1"/><stop offset="100%" style="stop-color:#009d8c;stop-opacity:1"/></linearGradient></defs></svg>