<?xml version="1.0" standalone="no"?><!DOCTYPE svg PUBLIC "-//W3C//DTD SVG 1.1//EN" "http://www.w3.org/Graphics/SVG/1.1/DTD/svg11.dtd"><svg width="100%" height="100%" viewBox="0 0 1070 803" version="1.1" xmlns="http://www.w3.org/2000/svg" xmlns:xlink="http://www.w3.org/1999/xlink" xml:space="preserve" style="fill-rule:evenodd;clip-rule:evenodd;stroke-linejoin:round;stroke-miterlimit:1.41421;"><rect x="0" y="0" width="1049.33" height="40" style="fill:#fff;"/><clipPath id="tag1"><path d="M514.474,79.5053l158.314,-1.08227l59.2863,73.4116l-158.261,1.04081l-59.3392,-73.3701Z"/></clipPath><g clip-path="url(#tag1)"><path d="M514.474,79.5053l106.824,-78.4713l110.776,150.801l-106.824,78.4713l-110.776,-150.801Z" style="fill:url(#tag2);fill-rule:nonzero;"/></g><clipPath id="tag3"><path d="M573.814,152.875l158.261,-1.04081l-86.1744,604.771l-158.351,0.987914l86.2645,-604.718Z"/></clipPath><g clip-path="url(#tag3)"><path d="M229.259,405.979l447.843,-328.978l313.318,426.525l-447.843,328.978l-313.318,-426.525Z" style="fill:url(#tag4);fill-rule:nonzero;"/></g><clipPath id="tag5"><path d="M421.036,803.904l156.655,0l334.731,-230.975l-59.2191,-73.1757l-363.741,256.879l86.2631,-604.705l-59.3363,-73.3701l-95.353,725.346Z"/></clipPath><g clip-path="url(#tag5)"><path d="M108.377,378.276l429.366,-315.405l374.68,510.058l-429.366,315.405l-374.68,-510.058Z" style="fill:url(#tag6);fill-rule:nonzero;"/></g><clipPath id="tag7"><path d="M912.422,572.929l-335.751,230.975l158.908,0l335.069,-231.964l-158.226,0.989344Z"/></clipPath><g clip-path="url(#tag7)"><path d="M576.672,803.904l431.52,-316.987l62.4567,85.0234l-431.52,316.987l-62.4567,-85.0234Z" style="fill:url(#tag8);fill-rule:nonzero;"/></g><clipPath id="tag9"><path d="M853.202,499.753l158.236,-1.00507l59.2105,73.1914l-158.226,0.987914l-59.2205,-73.1743Z"/></clipPath><g clip-path="url(#tag9)"><path d="M853.202,499.753l106.793,-78.4484l110.654,150.635l-106.793,78.4484l-110.654,-150.635Z" style="fill:url(#tag10);fill-rule:nonzero;"/></g><clipPath id="tag11"><path d="M352.113,803.904l157.156,0l76.9272,-558.131l-157.164,-0.147258l-76.9186,558.279Z"/></clipPath><g clip-path="url(#tag11)"><path d="M112.596,478.02l418.436,-307.304l294.61,400.841l-418.436,307.304l-294.61,-400.841Z" style="fill:url(#tag12);fill-rule:nonzero;"/></g><clipPath id="tag13"><path d="M165.073,427.34l59.0847,73.6818l362.038,-255.249l-76.9272,558.131l68.5464,0l95.0799,-725.466l-507.822,348.902Z"/></clipPath><g clip-path="url(#tag13)"><path d="M165.073,427.34l496.343,-364.52l324.434,441.419l-496.343,364.52l-324.434,-441.419Z" style="fill:url(#tag14);fill-rule:nonzero;"/></g><clipPath id="tag15"><path d="M165.073,427.338l-157.174,-0.233039l507.872,-348.862l157.123,0.194438l-507.821,348.901Z"/></clipPath><g clip-path="url(#tag15)"><path d="M7.89902,427.105l598.306,-439.403l66.6886,90.7354l-598.306,439.403l-66.6886,-90.7354Z" style="fill:url(#tag16);fill-rule:nonzero;"/></g><clipPath id="tag17"><path d="M224.158,501.021l-157.22,-0.241617l-59.0389,-73.6747l157.174,0.233039l59.0847,73.6832Z"/></clipPath><g clip-path="url(#tag17)"><path d="M144.473,353.389l79.685,147.632l-136.574,73.7161l-79.685,-147.632l136.574,-73.7161Z" style="fill:url(#tag18);fill-rule:nonzero;"/></g><clipPath id="tag19"><path d="M482.434,445.039c-180.973,41.744 -311.658,187.046 -343.953,358.864l159.615,0c29.3286,-100.227 110.516,-182.261 219.328,-207.346c71.8103,-16.6273 118.976,-18.1785 179.805,13.4805c27.8446,-19.275 122.91,-86.8735 140.131,-99.1016c-73.6418,-49.583 -161.22,-77.5748 -252.766,-77.5791c-33.6849,-0.00142969 -67.8901,3.78581 -102.16,11.682ZM835.215,735.071c12.7142,21.3124 26.6194,44.163 35.1532,68.8323l160.039,0c-1.17091,-6.2606 -2.47479,-12.5069 -3.9202,-18.7689c-12.0437,-52.2422 -31.8677,-98.8257 -59.2906,-141.513c-5.93463,3.73005 -109.491,75.7005 -131.982,91.45Z"/></clipPath><g clip-path="url(#tag19)"><path d="M162.06,946.994l-72.4193,-439.478l868.347,-143.091l72.4193,439.478l-868.347,143.091Z" style="fill:url(#tag20);fill-rule:nonzero;"/></g><defs><linearGradient id="tag2" x1="0" y1="0" x2="1" y2="0" gradientUnits="userSpaceOnUse" gradientTransform="matrix(106.825,-78.4715,78.4715,106.825,569.862,154.906)"><stop offset="0%" style="stop-color:#44c7f4;stop-opacity:1"/><stop offset="100%" style="stop-color:#006ca9;stop-opacity:1"/></linearGradient><linearGradient id="tag4" x1="0" y1="0" x2="1" y2="0" gradientUnits="userSpaceOnUse" gradientTransform="matrix(447.844,-328.979,328.979,447.844,385.915,619.242)"><stop offset="0%" style="stop-color:#44c7f4;stop-opacity:1"/><stop offset="100%" style="stop-color:#006ca9;stop-opacity:1"/></linearGradient><linearGradient id="tag6" x1="0" y1="0" x2="1" y2="0" gradientUnits="userSpaceOnUse" gradientTransform="matrix(496.237,-364.527,364.527,496.237,228.845,682.428)"><stop offset="0%" style="stop-color:#44c7f4;stop-opacity:1"/><stop offset="100%" style="stop-color:#006ca9;stop-opacity:1"/></linearGradient><linearGradient id="tag8" x1="0" y1="0" x2="1" y2="0" gradientUnits="userSpaceOnUse" gradientTransform="matrix(598.407,-439.579,439.579,598.407,439.112,966.422)"><stop offset="0%" style="stop-color:#44c7f4;stop-opacity:1"/><stop offset="100%" style="stop-color:#006ca9;stop-opacity:1"/></linearGradient><linearGradient id="tag10" x1="0" y1="0" x2="1" y2="0" gradientUnits="userSpaceOnUse" gradientTransform="matrix(106.793,-78.4484,78.4484,106.793,908.527,575.07)"><stop offset="0%" style="stop-color:#44c7f4;stop-opacity:1"/><stop offset="100%" style="stop-color:#006ca9;stop-opacity:1"/></linearGradient><linearGradient id="tag12" x1="0" y1="0" x2="1" y2="0" gradientUnits="userSpaceOnUse" gradientTransform="matrix(444.576,-326.502,326.225,443.856,243.686,711.144)"><stop offset="0%" style="stop-color:#fd0;stop-opacity:1"/><stop offset="71%" style="stop-color:#ec1b27;stop-opacity:1"/><stop offset="87%" style="stop-color:#eb008a;stop-opacity:1"/><stop offset="100%" style="stop-color:#eb008b;stop-opacity:1"/></linearGradient><linearGradient id="tag14" x1="0" y1="0" x2="1" y2="0" gradientUnits="userSpaceOnUse" gradientTransform="matrix(496.342,-364.52,364.211,495.539,353.198,683.3)"><stop offset="0%" style="stop-color:#fd0;stop-opacity:1"/><stop offset="65%" style="stop-color:#ec1d24;stop-opacity:1"/><stop offset="100%" style="stop-color:#eb008b;stop-opacity:1"/></linearGradient><linearGradient id="tag16" x1="0" y1="0" x2="1" y2="0" gradientUnits="userSpaceOnUse" gradientTransform="matrix(598.306,-439.403,439.03,597.338,41.2445,472.473)"><stop offset="0%" style="stop-color:#fd0;stop-opacity:1"/><stop offset="65%" style="stop-color:#ec1d24;stop-opacity:1"/><stop offset="81%" style="stop-color:#eb008b;stop-opacity:1"/><stop offset="100%" style="stop-color:#eb008b;stop-opacity:1"/></linearGradient><linearGradient id="tag18" x1="0" y1="0" x2="1" y2="0" gradientUnits="userSpaceOnUse" gradientTransform="matrix(79.6847,147.632,-147.632,79.6847,76.1839,390.249)"><stop offset="0%" style="stop-color:#ffe400;stop-opacity:1"/><stop offset="100%" style="stop-color:#fcb415;stop-opacity:1"/></linearGradient><linearGradient id="tag20" x1="0" y1="0" x2="1" y2="0" gradientUnits="userSpaceOnUse" gradientTransform="matrix(-147.53,-895.288,895.288,-147.53,658.204,1334.74)"><stop offset="0%" style="stop-color:#b2d235;stop-opacity:1"/><stop offset="96%" style="stop-color:#0da185;stop-opacity:1"/><stop offset="100%" style="stop-color:#009d8c;stop-opacity:1"/></linearGradient></defs></svg>